/* XPM */
static char *_ade7299600c475bf5c3318f80afc422Y4npF4QB08jcm9lg[] = {
/* columns rows colors chars-per-pixel */
"50 50 95 2 ",
"   c None",
".  c black",
"X  c #010101",
"o  c #020202",
"O  c #020303",
"+  c #080809",
"@  c #08090A",
"#  c #0E0F10",
"$  c #0F1011",
"%  c #131416",
"&  c #141618",
"*  c #16181A",
"=  c #17181A",
"-  c #17191A",
";  c #17191B",
":  c #18191B",
">  c #181A1B",
",  c #181A1C",
"<  c #191B1D",
"1  c #2B2E31",
"2  c #2B2E32",
"3  c #2C3033",
"4  c #2C3034",
"5  c #2D3134",
"6  c #3A3F43",
"7  c #3D4246",
"8  c #41464B",
"9  c #42474C",
"0  c #42484D",
"q  c #43494E",
"w  c #44494F",
"e  c #444A4F",
"r  c #454A50",
"t  c #484E54",
"y  c #51575E",
"u  c #51585E",
"i  c #525960",
"p  c #535A60",
"a  c #545B61",
"s  c #656E76",
"d  c #6C757E",
"f  c #6D767E",
"g  c #727B84",
"h  c #727C84",
"j  c #727C85",
"k  c #737D86",
"l  c #747E87",
"z  c #7A858E",
"x  c #7B858E",
"c  c #7B858F",
"v  c #7C868F",
"b  c #7C8690",
"n  c #7D8791",
"m  c #7D8891",
"M  c #838E99",
"N  c #848F99",
"B  c #848F9A",
"V  c #85909A",
"C  c #95A1AD",
"Z  c #95A2AD",
"A  c #96A3AF",
"S  c #97A4B0",
"D  c #98A4B0",
"F  c #A9B7C4",
"G  c #A9B8C5",
"H  c #AAB8C5",
"J  c #AAB8C6",
"K  c #AAB9C6",
"L  c #ABB9C6",
"P  c #ACBAC7",
"I  c #ACBAC8",
"U  c #ACBBC8",
"Y  c #ADBBC8",
"T  c #AEBCCA",
"R  c #B2C0CE",
"E  c #B2C1CF",
"W  c #B5C4D2",
"Q  c #B9C8D6",
"!  c #BAC9D8",
"~  c #BECEDD",
"^  c #BFCFDE",
"/  c #C0CFDE",
"(  c #C0D0DF",
")  c #C1D1E0",
"_  c #C1D2E1",
"`  c #C2D2E1",
"'  c #C2D2E2",
"]  c #C3D3E2",
"[  c #C3D3E3",
"{  c #C4D4E3",
"}  c #C4D4E4",
"|  c #C4D5E4",
" . c #C5D6E5",
".. c #C6D6E6",
"X. c #C6D7E6",
/* pixels */
"                                                                                                    ",
"                                                                                                    ",
"                                                                                                    ",
"                                                                                                    ",
"                                                                                                    ",
"                                                                                                    ",
"                                                                                                    ",
"                                                                                                    ",
"                                                                                                    ",
"                                                                                                    ",
"                                                                                                    ",
"                                                                                                    ",
"                                                                                                    ",
"                                                                . . . .                             ",
"                                                                8 q q 8                             ",
"                                                              3 I _ _ I 3 * >                       ",
"                                                          . 8 P / ( ( ( Y Y l .                     ",
"                                                      . . . r _ { ( ( ( [ X.m . .                   ",
"                                                    1 q q & w _ ( ( { ( ( { D 7 @                   ",
"                                                > & a / ^ y t P ( ( ( ( ( ( ( H >                   ",
"                                              > D P R ( _ W l 5 Y { ( ( ( ( [ F , . .               ",
"                                . . . .       > P { [ [ ( [ F N Q ( ( [ [ ( [ Q N 2 .               ",
"                                8 q q 8     . , F [ ( ( _ ( _ { ( [ ( ( ( ( _ _ [ w .               ",
"                          > * 3 I _ _ I 3 * # * F [ ( [ ( _ ( _ ( ( [ ( [ ( ( _ ( w .               ",
"                        O k I Y ( ( ( / Y P f < H [ ( { ( { ( ( { ( ( ( ( ( _ ( ( q .               ",
"                      * k H { _ ( ( ( [ _ { H V Q ( ( ( ( ( { ( ( ( ( { { X.{ X.{ r .               ",
"                      , P { ( _ ( { ( ( ( ( { { ( { ( { ( ( ( ( [ ( ( Q V x x x x 1 .               ",
"                      > H ] _ ( ( ( ( [ ( _ ( ( ( ( ( ( { ( { ( ( ( { Y 3 > > > , , *               ",
"                      * H { ( ( ( ( ( { ( { ( { ( ( ( ( ( { ( ( ( ( { ( P F H H H Y k . .           ",
"                . . . @ 6 D X.( { ( ( ( ( ( ( ( { ( { ( ( ( { ( ( [ ( ( [ [ [ [ ] { H f % .         ",
"                8 q w w 8 s D ( ( { ( { ( { ( ( ( ( ( { ( ( ( ( ( ( ( ( ( ( _ ( _ ( X.W a * .       ",
"          > * 3 Y ( ( ( / u u ( ( ( ( ( ( ( { ( { ( ( ( { ( { ( ( [ ( [ ( _ ( _ ( _ ( _ / i %       ",
"        o l P P / ( ( [ ( R R ( [ ( ( ( ( ( { ( ( ( ( ( ( ( ( ( ( ( ( { [ ( ( ( ( ( { ( ( W k .     ",
"      . . x X._ ( _ ( ( ( [ [ ( ( _ ( [ ( [ ( ( ( { ( { [ ( { ( { ( ( ( ( _ ( { ( { ( ( ( X.m o     ",
"      @ 7 C [ ( _ ( [ [ ( ( ( ( _ ( _ ( ( ( ( ( { ( ( ( ( _ ( _ ( { ( { _ ( _ ( ( ( ( ( ( { x o     ",
"      * F [ _ _ ( _ / ( { ( [ ( ( _ ( _ ( [ ( { ( ( ( { _ ( _ ( ( ( ( ( ( _ ( _ ( { ( { _ { V >     ",
"      * H _ _ ( ( ( _ ( ( ( ( ( ( ( ( ( ( ( ( ( ( ( ( ( ( ( ( ( ( ( ( ( ( ( ( ( ( / ( ( ( ( ! D >   ",
"      * I X.{ X.X.X.{ X.X.X.X.W u q w q w w w w w w w w w w q w w w w w q w q q w w w u W X.X.T ,   ",
"      % f M x x x x x x M x M f > . . . . . . . . . . . . . . . . . . . . . . . . . . > l x n k >   ",
"      . . . . . . . . . . . o .                                                         . o . .     ",
"                                                                                                    ",
"                                                                                                    ",
"                                                                                                    ",
"                                                                                                    ",
"                                                                                                    ",
"                                                                                                    ",
"                                                                                                    ",
"                                                                                                    ",
"                                                                                                    ",
"                                                                                                    "
};
