/* XPM */
static char *_910192a98594603d2b96c43b776b24c5Wz5b7pj8Yc54keD[] = {
/* columns rows colors chars-per-pixel */
"50 50 225 2 ",
"   c #000615",
".  c #00061C",
"X  c #000A1C",
"o  c #06151F",
"O  c #131C1B",
"+  c #000623",
"@  c #000922",
"#  c #000B2B",
"$  c #001125",
"%  c #00132D",
"&  c #021C2D",
"*  c #0A1D2E",
"=  c #000D35",
"-  c #000F3A",
";  c #001234",
":  c #011B33",
">  c #00133B",
",  c #001B3E",
"<  c #16182D",
"1  c #0B212E",
"2  c #01233D",
"3  c #072335",
"4  c #19292E",
"5  c #2C3637",
"6  c #001F43",
"7  c #001541",
"8  c #002443",
"9  c #00254E",
"0  c #00294A",
"q  c #0E334D",
"w  c #193348",
"e  c #002B53",
"r  c #002E58",
"t  c #1F3F58",
"y  c #0A3756",
"u  c #2A3247",
"i  c #3E414A",
"p  c #2D465F",
"a  c #26485E",
"s  c #3A4455",
"d  c #374D5C",
"f  c #3B4B5D",
"g  c #344455",
"h  c #264D67",
"j  c #3A5467",
"k  c #345974",
"l  c #454C57",
"z  c #40484B",
"x  c #414960",
"c  c #485464",
"v  c #555D6A",
"b  c #5F6A7E",
"n  c #456179",
"m  c #60727E",
"M  c #367FA9",
"N  c #257FB4",
"B  c #597687",
"V  c #4A7B9A",
"C  c #5C7A92",
"Z  c #6B7C8B",
"A  c #687784",
"S  c #697F96",
"D  c #427CA2",
"F  c #1F87BE",
"G  c #3B84AA",
"H  c #2B85BC",
"J  c #3B84B5",
"K  c #3687BE",
"L  c #3C86BA",
"P  c #348ABE",
"I  c #3B89BB",
"U  c #3885B5",
"Y  c #5D8398",
"T  c #7B8484",
"R  c #77838D",
"E  c #7C8C94",
"W  c #738899",
"Q  c #6A8594",
"!  c #4583AD",
"~  c #4D85AD",
"^  c #4E85A3",
"/  c #5488AB",
"(  c #5C8BAC",
")  c #5585A5",
"_  c #4387B4",
"`  c #4887B1",
"'  c #4C8CB5",
"]  c #438BBC",
"[  c #488FBA",
"{  c #4188B6",
"}  c #538DB4",
"|  c #4591B7",
" . c #5693BE",
".. c #7C8FA0",
"X. c #1C89CC",
"o. c #1B85C8",
"O. c #1D8DD4",
"+. c #1D8DDA",
"@. c #168AD7",
"#. c #1E94DC",
"$. c #2385C5",
"%. c #2A85C3",
"&. c #248CCD",
"*. c #2C8CCC",
"=. c #2787C7",
"-. c #3586C1",
";. c #358CC3",
":. c #3C8CC3",
">. c #328ECC",
",. c #2C91CD",
"<. c #2F91C2",
"1. c #3C92C6",
"2. c #3291CC",
"3. c #3A92CA",
"4. c #3C98C9",
"5. c #238DD4",
"6. c #2C8ED3",
"7. c #258ED9",
"8. c #2C8FD9",
"9. c #318ED3",
"0. c #308ED9",
"q. c #3E8FD1",
"w. c #2693D5",
"e. c #2A92D5",
"r. c #2593DA",
"t. c #2A91D9",
"y. c #2E9ADA",
"u. c #2B98D8",
"i. c #3494D4",
"p. c #3A96D2",
"a. c #379CD6",
"s. c #3395DA",
"d. c #329ADD",
"f. c #3898DD",
"g. c #36A0DC",
"h. c #1E94E3",
"j. c #1896EA",
"k. c #298FE1",
"l. c #2492E2",
"z. c #2C95E2",
"x. c #2C9AE4",
"c. c #2B9AE8",
"v. c #259AE7",
"b. c #339DE1",
"n. c #35A2E3",
"m. c #458EC2",
"M. c #408FC8",
"N. c #4A96CC",
"B. c #4796C9",
"V. c #469CD4",
"C. c #7FA1C6",
"Z. c #40A4E2",
"A. c #838C94",
"S. c #808E91",
"D. c #8898AD",
"F. c #929BA0",
"G. c #9BAABB",
"H. c #9DA4B4",
"J. c #9DABB1",
"K. c #A6AAB6",
"L. c #A8B4B6",
"P. c #C2BCBE",
"I. c #97B7C9",
"U. c #A8AFC3",
"Y. c #A4B9CA",
"T. c #ABBBCB",
"R. c #A5B6C6",
"E. c #B6BDCB",
"W. c #B9BCCD",
"Q. c #ACBED6",
"!. c #BCC4CD",
"~. c #BAC6CC",
"^. c #ACC4D2",
"/. c #B5C5D3",
"(. c #BCC5D3",
"). c #B6CCD4",
"_. c #BBCBD4",
"`. c #BCCCDC",
"'. c #B8CADC",
"]. c #BDD2DC",
"[. c #BBD0D5",
"{. c #ADC2C7",
"}. c #ADC8E0",
"|. c #B7CEE2",
" X c #BCCDE3",
".X c #B9CDE8",
"XX c #B4D1E2",
"oX c #BDD3E3",
"OX c #BBD2EA",
"+X c #BDDAEA",
"@X c #B8D7E8",
"#X c #BBDEF2",
"$X c #C4CACD",
"%X c #C1C6CC",
"&X c #C5D1CF",
"*X c #C3C6D3",
"=X c #C5CCD5",
"-X c #CBCFD4",
";X c #C4CFDC",
":X c #CACDD9",
">X c #C6C7D6",
",X c #D0CFDD",
"<X c #C4D0D4",
"1X c #C4D1DC",
"2X c #CBD2DB",
"3X c #CBDADD",
"4X c #CAD3D6",
"5X c #D2D4DC",
"6X c #D7DCDE",
"7X c #C3CEE1",
"8X c #C8CFE2",
"9X c #C3D2E2",
"0X c #CBD5E3",
"qX c #C5D9E4",
"wX c #CBDBE3",
"eX c #C3D4EA",
"rX c #CDD6EB",
"tX c #C6DCEC",
"yX c #CADCEC",
"uX c #D2D5E4",
"iX c #D3DAE3",
"pX c #D4DBE7",
"aX c #C4DBF2",
"sX c #C7E2F4",
"dX c #D3E2E9",
/* pixels */
"e.e.e.t.w.t.e.w.t.e.e.u.w.e.e.t.e.e.e.,.,.e.e.e.w.r.l.t.r.t.8.8.l.l.t.r.t.e.,.,.<.2.,.e.e.r.7.t.t.t.",
"t.e.w.w.e.e.t.e.w.e.e.t.e.w.w.e.w.e.e.e.*.e.e.e.r.r.l.r.8.t.8.8.r.r.r.t.w.e.e.6.e.*.>.,.6.8.t.r.t.e.",
"w.t.w.t.e.e.e.e.t.e.t.e.e.w.e.w.t.w.e.,.e.,.,.e.e.w.r.t.8.e.8.6.,.,.w.e.r.r.7.8.8.9.9.6.w.w.w.w.w.e.",
"e.e.e.e.t.e.t.w.e.w.e.e.t.e.t.t.r.r.w.e.e.,.e.,.e.e.e.e.e.6.8.2.,.<.,.e.t.r.t.z.8.8.8.e.6.e.w.w.e.t.",
"t.e.t.e.w.t.e.w.u.w.e.w.e.e.w.w.r.r.r.w.e.e.,.e.e.e.e.w.e.6.6.,.,.,.,.e.w.w.r.#.r.l.r.r.w.w.e.i.e.w.",
"e.w.e.e.e.e.t.e.e.t.e.t.w.t.w.t.r.r.t.w.e.,.,.e.,.e.w.w.e.e.e.e.e.e.,.,.e.w.w.w.#.#.h.r.t.e.>.9.e.e.",
"e.e.t.w.t.e.u.w.e.e.e.w.t.e.e.t.l.r.r.t.e.,.,.,.w.w.w.r.r.w.e.t.l.l.w.,.,.<.,.w.r.#.h.h.r.t.9.9.8.e.",
"w.u.e.e.w.e.e.e.w.t.e.t.e.e.w.t.r.r.t.w.e.,.e.e.w.w.r.r.r.r.r.r.h.h.r.e.,.2.2.*.r.#.h.h.l.t.e.9.e.e.",
"t.e.t.e.e.e.w.e.e.e.e.t.e.e.e.w.r.e.e.e.,.e.e.w.w.#.c.+.#.z.+.r.@.v.u.w.w.,.9.9.i.t.t.t.r.w.w.w.e.e.",
"w.e.w.e.t.e.t.e.t.w.w.e.t.w.t.u.e.e.6.6.e.e.e.e.r.z.+.v.w.X.u.w.g.o.w.w.e.e.z.&.6.9.e.e.e.w.#.w.w.e.",
"e.w.t.e.e.w.e.e.e.e.e.t.e.e.w.t.e.8.6.e.e.e.r.r.O.r.r.X.d.s.*.1.| M N.>.5.+.v.z.8.>.>.;.,.,.w.r.w.t.",
"e.t.e.e.t.w.u.e.t.e.w.u.t.e.e.e.e.6.e.e.e.e.t.r.#.w.b.*.>.K m.= # : - m.i.7.c.@.t.*.>.<.2.,.e.e.e.e.",
"t.w.e.w.t.e.w.t.w.e.t.w.e.e.w.e.e.e.e.e.e.t.r.r.b.o.9.M.J _ / k j g h D N.=.,.b.w.,.,.<.,.e.i.e.e.t.",
"e.e.e.t.e.e.e.e.t.e.e.e.e.t.t.e.e.6.e.8.r.t.r.e.e.s.-.] } ( q I.0X*X/.t 8 r U K ,.,.e.e.e.w.e.6.e.e.",
"t.w.w.e.t.e.e.w.e.w.w.e.u.e.t.w.w.8.e.r.t.r.t.7.*.p.I ' # a Y.0X1X3X_.R.E.Q #  .:.9.e.r.r.r.w.w.w.e.",
"u.w.w.e.e.w.t.t.t.t.e.t.w.e.t.w.w.r.t.t.7.e.8.>.3.L - # . c 9X1X].`.2X2X:XA.  + ] 2.r.r.#.r.w.w.r.e.",
"#.#.w.,.,.e.r.r.l.7.t.e.&.y.r.r.O.u.7.8.b.>.q.U ' y p x < s 0X XXXoX1X;X0XH.i X ` p.e.w.=.e.e.w.e.e.",
"w.w.w.e.6.e.t.t.7.z.5.n.5.&.&.e.e.&.s.9.-.-.m.9 2 j 0X:Xl c T.eX+XaX).1X8X1XK.1 ( -.i.,.>.e.t.t.t.e.",
",.e.8.9.e.9.6.6.5.t.r.X.y.,.<.1.m.m.3.P ;.B.9 C.Y.'.(.3X_.Z u U.).9X/.9X`.eXW.* @ > H 2.p.*.+.l.r.e.",
"9.2.e.8.8.e.i.2.f.&.y.w.=.4.M = > = = | ] D 6 }.rX8X2X1X{.T.D.>X0X1X0XrXOXyXQ...w ; K ,.6.6.l.l.r.e.",
"e.,.w.r.w.w.e.,.$.i.i.H N.D ( h p k h ) V & # T.uX%X-X6X3X9X`.8X2X_.2X_.`.eX`.yXg @ ] e.s.s.l.l.r.w.",
"e.w.r.r.r.w.w.e.a.>.-.J r 7 w T.qX1XR.w 3 & & Y.1X2X2X%X1X;XoX X9X1X0X2X8XrXyX_.l   m.8.5.7.l.c.t.t.",
"#.w.w.#.#.#.#.r.=.;.! 7 S Y.T.;X1X_.:XW.K.A 4 L._.3X,X$XuX7XoXsXXX1X=X=X*X2XiX~.l   I e.t.x.7.5.t.w.",
"w.w.w.w.#.h.#.r.a.U 0 C T.8X8X7X_.1X2X5X:XW.W [.3X~.:X,X>X9X@XXX@XoX2X5XiX1X$X6Xz X m.e.7.+.e.i.e.t.",
"2.i.6.8.c.+.@.b.4.G 2 ^.].[.yX'.1X1X1X1X;X;X1X].1X3X2X1X9X9XoX@XXXoX4XS.E Z T T 5   _ ;.d.y.&.=.e.e.",
"q.>.0.k.+.c.t.$.J ^ 3 R.<X1X^.aX8X9X1XoX9XoX9X7X1X`.9X].9XoX9XoXOXoXL.5 1 1 4 O * & / [ ;.=.g.,.e.e.",
"-.>.6.5.c.7.V.U / Y : L.qX].dX'.9X7XoXXXoXoX7X8X;X7XoXoXoXoXoX7XoXyX6XK.I.I.L.L.~.A   # G ;.,.w.e.w.",
"3.2.6.y.6.%.{ ; . o   g G.9X(.qX7XoXoX@XoXoX9X7X7X7XoXoXoXoX7X7X9X).&X3XsX#X).wX[.T.m 3 ; ] 3.w.e.e.",
"F g.w.H :.[ ^ j f s f f b H.=X0X7XOX9XoX9X9XoX7X9XoX7XeX9X9X;X9XqX7X!.~.XX@X'.1XqX0X~.c * # I i.e.e.",
",.,.<.B.e 8 w R.0X9X9X7Xc v 0X(.oXoX9X1X9X1X1XoXoXoX X9X9X;X;X7X7XeX0X2X].+XoXoX`.rX~.:Xv 3 { i.e.e.",
"O.s.J ; B R.~.-X;X).`.yXT./.3X].].1X1X=X=X1X1X1X X9X9X7X7X8X1X7X.X.X2X4X-X$X9XoX7X XrX:XP.m > H i.e.",
"c.*.7 + R iX$X=X9X0X1X).wX).].].].1X1X1X2X=X1X1X9X9X9X9X9X2X1X9XeX.X9X=X-X<XrX|..XeXeX8X5XE ; ] *.e.",
"*.M.= g J.$X3X[.`.9X2X-X&X[.<X].9X1X;X;X;X1X1X8X1X9X7X9X1X9X;X9X9X].1X1X1X1X].oXoX|.+XXX].Q ; ! 2.t.",
"a.I 6 U.6X<X[.tXaX;X5X4X%X3XtX`.;X1X1X9X;X1X;X1X1X;X1X;X;X9X;X1X1X1X1X].].9XoX].oXoXtX'.+XD.$ ( ;.e.",
"$.:.9 Q.<X1XXXXXOX.X7X1X].).'..X9X;X1X1X;X1X;X;X;X;X;X;X1X;X1X=X=X;X=X1X=X;X1X:X(.9X;X`.2X/.K.: :.e.",
">.m., Y.1X1X+X#XaXOXrXpX[.@X@Xn f d d d f f d d d d d d f d f f f f f f l f f f c l l _.0XuXE.8 :.w.",
":.! % Z F.T Q W W Q R A.E ..m 1 . @ @ @ @ . @ @ + @ @ @ @ . @ @ + # + + + + . . . + 3 Z Q E A 8 :.e.",
":.J ; .     . @ + @ $   o   & / ~ ` ` ! ` ` ` ! ` ` ` ! ` ` ` _ ` ` ` ` ` ` ~ ~ / V ) # # # > D >.e.",
"r.x.-.]  .[ J U N.] ] _ | ] H ;.2.e.e.e.e.2.,.6.e.e.>.e.e.i.,.e.7.e.e.e.9.8.>.,.9.4.1.P ;.:.1.>.i.e.",
"j.#.t.*.;.3.*.i.6.s.%.p.i.$.d.w.r.r.r.r.r.r.r.r.r.r.r.r.r.r.r.r.l.l.#.h.r.r.r.r.r.5.e.w.d.e.X.i.e.e.",
"j.h.r.e.>.>.9.7.7.8.8.*.e.e.r.r.w.8.e.*.e.e.e.e.e.,.e.e.e.e.e.e.w.w.w.e.w.e.e.w.e.e.e.e.,.e.,.e.w.e.",
"h.r.w.w.e.e.t.8.r.t.e.e.e.t.r.r.w.e.e.e.e.e.6.e.e.e.e.e.,.e.e.w.e.,.e.e.,.e.e.e.,.e.e.e.e.e.e.w.t.w.",
"r.r.r.w.e.e.8.r.r.r.w.e.t.t.r.#.r.r.r.r.w.r.r.r.w.r.r.r.t.r.t.r.e.e.e.7.e.t.t.t.r.t.r.r.r.l.r.r.t.w.",
"t.r.r.r.t.t.8.8.r.r.r.t.7.t.r.#.r.r.r.r.r.r.r.r.r.r.r.r.r.r.r.t.t.8.t.t.t.t.7.t.t.l.k.l.l.l.l.r.t.e.",
"8.6.w.#.r.t.8.8.w.r.w.e.t.7.r.r.t.t.e.t.e.7.t.t.7.t.t.e.t.e.t.t.8.8.6.9.t.9.t.8.e.7.t.t.8.8.t.8.t.e.",
">.i.w.w.r.8.0.8.w.w.e.e.9.s.w.w.e.t.e.e.e.e.e.e.e.e.t.e.t.e.e.e.6.e.8.e.e.w.8.e.e.8.e.e.7.e.8.t.e.t.",
">.,.w.#.r.8.0.9.e.w.e.e.9.9.e.w.e.e.8.e.t.e.8.e.e.8.e.8.e.e.e.t.w.r.w.w.w.w.e.w.e.e.,.w.,.e.e.,.e.w.",
">.,.,.w.r.t.0.8.e.w.e.8.9.e.e.w.e.e.e.t.e.e.e.e.e.e.e.e.t.e.e.e.#.w.r.r.w.w.w.w.e.e.e.e.w.,.,.e.e.e.",
"i.6.e.w.t.r.8.e.e.w.e.e.e.t.w.e.e.t.w.w.e.e.e.t.e.e.w.e.e.t.w.e.w.w.r.w.w.r.e.w.w.e.e.e.e.w.w.e.e.w.",
"w.e.e.e.e.e.e.e.e.e.t.e.e.e.t.e.e.w.t.e.t.w.e.w.t.e.t.e.e.w.t.e.e.e.e.e.e.e.e.e.e.t.e.w.e.e.t.w.e.e."
};
