/* XPM */
static char *e9dc219084e84851d4d167d1fee114d5bzrlptnAPQWSVaTn[] = {
/* columns rows colors chars-per-pixel */
"50 50 160 2 ",
"   c None",
".  c #695E3E",
"X  c #6F653E",
"o  c #72683E",
"O  c #7B6E3A",
"+  c #7E733E",
"@  c #6A6140",
"#  c #87752E",
"$  c #88772F",
"%  c #8F7D2F",
"&  c #937F2A",
"*  c #8B7A31",
"=  c #82763C",
"-  c #857A3D",
";  c #8A7C3B",
":  c #A68C1E",
">  c #A98E1D",
",  c #BD9D13",
"<  c #BFA11C",
"1  c #978226",
"2  c #9B8525",
"3  c #9A862B",
"4  c #8E853D",
"5  c #968330",
"6  c #9C8A37",
"7  c #97863C",
"8  c #948A3D",
"9  c #9D8C3B",
"0  c #9D943D",
"q  c #A18A25",
"w  c #A08A28",
"e  c #BA9D20",
"r  c #A7943A",
"t  c #A8953A",
"y  c #A49A3D",
"u  c #AA9B3B",
"i  c #B49D34",
"p  c #BDA32A",
"a  c #ABA23C",
"s  c #B7A239",
"d  c #B6AF3C",
"f  c #B7B03C",
"g  c #B9B23C",
"h  c #C09E10",
"j  c #D2AC09",
"k  c #DBB309",
"l  c #C2A217",
"z  c #C1A31D",
"x  c #D1AD11",
"c  c #E4BB05",
"v  c #E3BA08",
"b  c #C9AC2C",
"n  c #CCB02D",
"m  c #D2B120",
"M  c #DBBB2A",
"N  c #C8AD35",
"B  c #C3AA38",
"V  c #C9B037",
"C  c #C5B43A",
"Z  c #C9B339",
"A  c #C7BC3B",
"S  c #CABB3A",
"D  c #D1B533",
"F  c #D6BA35",
"G  c #D2BC38",
"H  c #ECC20F",
"J  c #E9C214",
"K  c #E9CA12",
"L  c #ECC61C",
"P  c #EDC91C",
"I  c #F1CA1B",
"U  c #F0D214",
"Y  c #F4DD1F",
"T  c #C7C13C",
"R  c #CDC43B",
"E  c #DBC237",
"W  c #D1C63B",
"Q  c #D4CC3B",
"!  c #D6D33B",
"~  c #DBD33B",
"^  c #E6C226",
"/  c #EAC724",
"(  c #EDC823",
")  c #EDCB2E",
"_  c #F2CC27",
"`  c #F3CF2C",
"'  c #F4D426",
"]  c #F9D323",
"[  c #F5D22B",
"{  c #F6DB2C",
"}  c #E2CA37",
"|  c #EBCB36",
" . c #E0CD38",
".. c #EFD536",
"X. c #E6DB3A",
"o. c #EBDC39",
"O. c #F6D433",
"+. c #F8D634",
"@. c #F5DC36",
"#. c #FADA34",
"$. c #F3E024",
"%. c #F6E529",
"&. c #F9E32F",
"*. c #F7E92C",
"=. c #EDE53B",
"-. c #EEE93A",
";. c #F7E137",
":. c #FCE336",
">. c #FFE935",
",. c #FCE837",
"<. c #FFEC36",
"1. c #FAEE32",
"2. c #FBE438",
"3. c #F3EA3A",
"4. c #F9E938",
"5. c #FCE938",
"6. c #FCEB38",
"7. c #FAEE39",
"8. c #F8ED3A",
"9. c #FCEC38",
"0. c #FDEF38",
"q. c #FFEF38",
"w. c #FCF134",
"e. c #FDF337",
"r. c #FDF437",
"t. c #FBF039",
"y. c #FAF139",
"u. c #FFF038",
"i. c #FDF338",
"p. c #FFF238",
"a. c #FFF338",
"s. c #FEF339",
"d. c #FEF239",
"f. c #FAF43A",
"g. c #FBF63B",
"h. c #FEF439",
"j. c #FEF539",
"k. c #FEF638",
"l. c #FFF638",
"z. c #FFF639",
"x. c #FFF739",
"c. c #FFF73A",
"v. c #FFF839",
"b. c #FFF939",
"n. c #FFFA39",
"m. c #FFFB39",
"M. c #FEF83A",
"N. c #FFF83A",
"B. c #FFF93A",
"V. c #FFF93B",
"C. c #FFFA3A",
"Z. c #FFFB3A",
"A. c #FFFA3B",
"S. c #FFFC3A",
"D. c #FFFD3A",
"F. c #FFFE3A",
"G. c #FFFF3A",
"H. c #FFFA3C",
"J. c #FFFB3C",
"K. c #FFFB3D",
/* pixels */
"                                                                                                    ",
"                                                                                                    ",
"                                                                                                    ",
"                                                                                                    ",
"                                                                                                    ",
"                                                                                                    ",
"                                                                                                    ",
"                                                                                                    ",
"                                                                                                    ",
"                                                                                                    ",
"                                                                                                    ",
"                                        o o o o o o o o o o                                         ",
"                                        y g g 4 + a f f f y                                         ",
"                                      ; W i.=.a 0 X.M.z.z.W 4                                       ",
"                                  . 7 F @.} 0 f X.@.#.#.:.@.~ 8 @                                   ",
"                                  y A ;.E s a ! M.2.:.:.+.:.9.A a                                   ",
"                                + Q M.9.y 8 =.M.M.M.M.z.#.O.#.0.Q @                                 ",
"                                + G ,.@.9 8 =.S.M.M.M.z.:.+.+.i.! =                                 ",
"                                + G ,.#.9 8 -.S.M.M.M.z.#.+.+.i.Q +                                 ",
"                                = Q S.3.y 8 -.S.M.M.M.z.;.+.+.i.Q -                                 ",
"                              9 V .. .a g ~ @.i.M.M.H.z.0.:.+.#.o.R y                               ",
"                            X u #.>.C + T z.#.2.M.M.M.M.H.0.#.+.:.g.a @                             ",
"                            X a t.S.R = T i.#.>.M.M.M.M.H.6.+.+.:.t.a X                             ",
"                            X a g.S.R = C >.+.5.H.M.M.M.M.9.+.+.#.;.u o                             ",
"                            X u 9.z.W = B #.O.&.1.z.M.M.M.5.#.+.#.O.t o                             ",
"                            X t @.:.V = B #.O.P K 1.H.M.H.0.+.O.+.O.t @                             ",
"                            X u ;.5.S = B #.O._ P 1.H.r.$.' +.+.+.+.r o                             ",
"                            X a i.M.S = N #.O.O.:.i.H.w.K J O.#.+.O.r o                             ",
"                            X u #.5.Z = g #.O.>.i.M.M.i.{ ` +.+.#.+.t @                             ",
"                              9 N ^ m w i n ( &.M.M.H.r.' _ O.#.| V 9                               ",
"                                = l c k 3 5 k Y H.M.S.w.K J O.#.D =                                 ",
"                                O b ] ( 6 # j ' J.J.J.M.*.{ O.I z O                                 ",
"                                + b ] ( 9 $ j U %.%.$.%.%.&.[ J h O                                 ",
"                                + , c k 3 * j c c c c c c P [ J , O                                 ",
"                                  & e L M i w l c L I ( L [ O.p &                                   ",
"                                  @ 7 F ` M 5 q j ( [ [ [ ) F 7 X                                   ",
"                                      ; < v j q & x H c c z ;                                       ",
"                                        1 > : * O 2 > > > 1                                         ",
"                                        o o o o @ @ O @ o o                                         ",
"                                                                                                    ",
"                                                                                                    ",
"                                                                                                    ",
"                                                                                                    ",
"                                                                                                    ",
"                                                                                                    ",
"                                                                                                    ",
"                                                                                                    ",
"                                                                                                    ",
"                                                                                                    ",
"                                                                                                    "
};
