/* XPM */
static char *b944cfeb0b244c46d73183877eb351dbMcaYm4OIOXtl0svJ[] = {
/* columns rows colors chars-per-pixel */
"50 50 235 2 ",
"   c #596C3C",
".  c #69793D",
"X  c #757738",
"o  c #71732E",
"O  c #737319",
"+  c #3E786C",
"@  c #4E6D51",
"#  c #466D5C",
"$  c #576A59",
"%  c #577357",
"&  c #4F744D",
"*  c #626748",
"=  c #696E4C",
"-  c #4D6D69",
";  c #566E63",
":  c #4A7766",
">  c #557663",
",  c #497979",
"<  c #567D7C",
"1  c #607561",
"2  c #957A06",
"3  c #957714",
"4  c #8D7309",
"5  c #8A7F2F",
"6  c #7B863E",
"7  c #3E8573",
"8  c #6F804A",
"9  c #7B884A",
"0  c #6D8357",
"q  c #739250",
"w  c #568477",
"e  c #779568",
"r  c #729B78",
"t  c #71A179",
"y  c #9A8805",
"u  c #9C8013",
"i  c #AD900E",
"p  c #A7861B",
"a  c #A19815",
"s  c #B8A90E",
"d  c #9D8B27",
"f  c #9F9327",
"g  c #888332",
"h  c #989533",
"j  c #9B8C37",
"k  c #A68C28",
"l  c #AC992C",
"z  c #AA9935",
"x  c #B6982F",
"c  c #9FAB30",
"v  c #BFA72A",
"b  c #B6A528",
"n  c #AAA338",
"m  c #B7A637",
"M  c #B0B234",
"N  c #CAAE0B",
"B  c #DABB0D",
"V  c #C5AC14",
"C  c #CCB01B",
"Z  c #D4AE1D",
"A  c #EDBD12",
"S  c #CBB128",
"D  c #C7AB34",
"F  c #CCB534",
"G  c #D5B93A",
"H  c #D0B32F",
"J  c #E6B82A",
"K  c #DBCB11",
"L  c #E5C819",
"P  c #FEC419",
"I  c #E2D313",
"U  c #EAD71A",
"Y  c #F5C00E",
"T  c #D9C12F",
"R  c #E6C92A",
"E  c #FFC929",
"W  c #EEDD25",
"Q  c #EBD627",
"!  c #F4DC2E",
"~  c #FFDB2C",
"^  c #F3D429",
"/  c #ECD633",
"(  c #E7DE3B",
")  c #F4D533",
"_  c #F4DB32",
"`  c #F8DC33",
"'  c #F3DC3A",
"]  c #FADB3A",
"[  c #F4D338",
"{  c #F0CE32",
"}  c #F4E424",
"|  c #F5E32D",
" . c #FAE32E",
".. c #F9EA2B",
"X. c #FFFB2C",
"o. c #FEF32C",
"O. c #FAE434",
"+. c #FDEA33",
"@. c #FFED3C",
"#. c #F4E43A",
"$. c #FFF333",
"%. c #FEF934",
"&. c #FFF43C",
"*. c #FFFC3D",
"=. c #EAE33D",
"-. c #8B9E4B",
";. c #888E51",
":. c #A99649",
">. c #A59F51",
",. c #9BA45A",
"<. c #B4B44B",
"1. c #B5B445",
"2. c #BCBE56",
"3. c #AFAB55",
"4. c #849D76",
"5. c #8B9F64",
"6. c #89A269",
"7. c #C8BA45",
"8. c #D6B843",
"9. c #C7BA58",
"0. c #CAAA43",
"q. c #E3BD40",
"w. c #BDC355",
"e. c #CBC449",
"r. c #D7C646",
"t. c #D8C154",
"y. c #DCD554",
"u. c #C6CD53",
"i. c #EAD748",
"p. c #F3D849",
"a. c #EBD858",
"s. c #F2D855",
"d. c #E6C858",
"f. c #EDE048",
"g. c #FFEF41",
"h. c #FCED4C",
"j. c #F6E645",
"k. c #FEF543",
"l. c #FDF349",
"z. c #FFFC4A",
"x. c #FFF943",
"c. c #E9E159",
"v. c #FDED5B",
"b. c #F7E757",
"n. c #FEF353",
"m. c #FFF954",
"M. c #C7CD6F",
"N. c #ECDC6B",
"B. c #F5EC63",
"V. c #F9F866",
"C. c #E8E36B",
"Z. c #317DAF",
"A. c #487A82",
"S. c #407EA7",
"D. c #3F868A",
"F. c #38859E",
"G. c #2C8B9D",
"H. c #3A8BA8",
"J. c #3891AC",
"K. c #2B8DB7",
"L. c #3D8DB4",
"P. c #388BB8",
"I. c #2C94BE",
"U. c #3994B8",
"Y. c #4A858B",
"T. c #5B8987",
"R. c #4D9288",
"E. c #488599",
"W. c #578C94",
"Q. c #559392",
"!. c #438DAC",
"~. c #4A8BAA",
"^. c #4688A6",
"/. c #5187AB",
"(. c #4A94A8",
"). c #428AB5",
"_. c #4B8BBB",
"`. c #4789B7",
"'. c #5590B6",
"]. c #4D93B0",
"[. c #1E99CC",
"{. c #1F9AC6",
"}. c #1E92D5",
"|. c #1E98D3",
" X c #1D94DB",
".X c #1A8BD1",
"XX c #238CC7",
"oX c #258CCB",
"OX c #2B8ECC",
"+X c #2E86CE",
"@X c #338DC4",
"#X c #328ECD",
"$X c #398BC3",
"%X c #2595C4",
"&X c #2B93C5",
"*X c #2594CD",
"=X c #2B92CD",
"-X c #2098CB",
";X c #2C99CA",
":X c #3392C2",
">X c #3292CC",
",X c #3997CE",
"<X c #258CD4",
"1X c #2D8ED5",
"2X c #258EDA",
"3X c #2C8EDC",
"4X c #318ED4",
"5X c #328CDA",
"6X c #3B8FD5",
"7X c #2693D4",
"8X c #2992D5",
"9X c #2298D6",
"0X c #2B98D3",
"qX c #2592DA",
"wX c #2A91DA",
"eX c #249ADB",
"rX c #2999D8",
"tX c #3293D3",
"yX c #3293DB",
"uX c #3398D6",
"iX c #1F8EE0",
"pX c #1D93E2",
"aX c #1E93EC",
"sX c #258EE4",
"dX c #2A8EE2",
"fX c #248BE7",
"gX c #308CE2",
"hX c #2492E3",
"jX c #2992E6",
"kX c #2492E9",
"lX c #2897E9",
"zX c #3193E1",
"xX c #3597E5",
"cX c #4090C1",
"vX c #428FC3",
/* pixels */
"8X8X8X8X8X8X8XqX8X8X8X8XqX8X8X7X*X*X7X8X5X5X5X4X3X3X5X5X5X4X8X7X8X8X8X7X1X8X1X3X8X3XjX3XqX7X7X=X8X8X",
"8X8X8X8XqX8X8X8X8XqX8X8X8X8X8X8X*X7X8X8X3XtX4X8XqX3X3X3X5X4X7X7X8X8X7X1X=X1X8X3X3XwX3XqXqX8X=X7X8X8X",
"8X8XqX8X8XqX8X8X8X8X8X8X8XqX8X0X*X7X8XwXqX7X[.{.-X*X8XqX7X7X7X8X8X8X8X8X7X1X8X1X3XwX2X8X8X8X7X8X8X8X",
"8X8X8X8X8X8X8X8X8X8X8XqX8X8X8X8X7X8X3XdXqX}.[.{.-X-X9X7XqX7X7X7X8X8X8X8X8X8X8X8X8X3X8X8X8X8X7XqX8X8X",
"8X8X8X8X8X8X8XqX8X8X8X8X8X8X8X8X8X8XdXdXjXqXqX8X*X*X8XqXkXhX=X&X8XqX8XqX7X8X7X7XqX8X7X1X8X8X8X8X8X8X",
"8X8X8XqX8X8X8X8X8X8XwXqX8X8X8X8X8X4X3XdX3X8X8X2X=X=X7XqXsXsX=X&X8X2XqX8XqX8X8X7X8X8X8X8X3X8XqX8X8X8X",
"rX8X8X8X8X8X8X8X8X8X8X8X8X8X8X8X4X3X3X1X8X7X7X7X=X=X*X*XqX8X8X1X3XqXqXqXqX8X7X8X7X8X7X8X8X8X3X3XqX8X",
"8X8X8X8X8XqX8X8X8XqX8X8XwX8X8X8X3X3X8X=X7X9X7X7XOX7X7X7X9XqX8X5X3XqXqXqXqX7X8X7X7X=X7X7X8X3XdX8XqX8X",
"8X8X8X8XqX8X8XqX8X8X8X8X8XqX8XqXhXhX8XoXlXiX XeX=XrXjXjX9X}.2X1X<X8X8X8XqXwXrX0X*X7X=X7X8X3XwX3X8X8X",
"8X8XqX8X8X8X8X8X8X8XqX8X8X8X8XqXhX}.*X0XjX3XXX@X@X@X+X5X=X=XyX1XuX8X2X8XwXqXqX8X7X*X=X7X8XwXdXdX3X8X",
"8X8X8X8X8X8X8X8X8X8X8X8X8X8X8XqX9XeX9X#XZ.`././.^.~.'.'.^.P.,X-XOXOXOX8XzXwXqX<X7X*X7X*X8X3X3XwX8X8X",
"8X8X8XqX8X8XqX8XqX8X8X8X8X8X8X8X7XXX%X].< % 1 $ - - @ @ - A.J.K.I.&X=XuXrXwXjX8X7X7X*X=X8X8X3X3X8X8X",
"rX8X8XqX8X8X8X8X8X8XrX8X8X8X8X8XtXU.H.w -.1.<.g X ,.M M <.5.Q.J.U.U.>X=X2X2X8XjX7X7X*X0X7X8X3X3X3X8X",
"8X8X8X8X8X8X8X8X8X8X8X8X8X8X8X=X$X^.w q u.v.a.m l a.l.&.b.9.e Y.G.K.:XtX4X3XwXwX8X7X*X*X=X8X3X8X8XqX",
"8X8X8X8X8X8XqX8X8XqX8X8X8X8X8X#XH., ;.9.N.7.c c ( #.E ~ j.a.u.e Y.K.@X#XyXyXdX2X8X7X=X7X7X8X3X8X8X8X",
"8X8X8XwXwXwX8X8X8X8X8X8X8XqX8X:XE.4.9.a.r.M c u.l... .O.` b.b.2.t (.U.OX<X3XwXqX8X7X=X0X8X8X8X1X8X8X",
"1X8X}.qXhX3X0X=X8X3X1X1XqX}.|.J.% M.V.b.l d y.V.x.%.X.$.#./ ' b.M.& G.8XqXwX.XrX=X=X8X8X8X1X1X1X8X8X",
"1X3X9XqXdX3X*X-X7X8X4X1XhXqX9X!.= r.f.( k k a.m.*.%.X.$.#./ ! h.y.. !.rX2XjX X7X=X=X3X8X8X4X8X8X8X8X",
"8X7X7X7X8X8X%XI.*X>X4X1XjXjX3X~.= F k.j.k d a.m.%.X.%.@.#./ ! h.e.. ^.6XdXkXlX}.8X7X8XwX8X8X7X7X8X8X",
"8X=X9X8X8X7X%X%X=XtXOX3XsXzX).W.6 r.m.f.l x f.z.X.X.*.&.#._  .j.r.6 T.).gXfXpXhX8X8X3XwX2X7X7X7X8X8X",
"=X=XqXqXqXqX7X*X1XtXOX1X2X,XY.e 1.f.r.b D r.=.&.%.%.&.&.@.O._ ' f.w.r Y.,XqX}.9X7X7X8X1X8X8X8X7X8X8X",
"=X7XqXwXdXwXqXqX2X4XOX7X*XU.: -.c.j.M u 8.n.=.| *.&.&.k.&.@.` _ j.B.3.# L.0X}.7X7X7X8X1X8XqXqX8X8XqX",
"*X7X3XdXdXhXhXhXgX4XOX=X=X!.& n c.z.1.3 r.h.| ..&.k.&.&.&.+.` ^ | h.n   H.&X;X-X*X7X8X8XqXqXqXqXqX8X",
"*X*X3XjX3XqXhX3X3X1X*XuX=XE.  n z.m.t.3 F j.W o.&.k.k.k.$.+.` _  .#.l = (.XX-X*X7X7X4X1X8XqXqXqX8X8X",
"*X=X2X8X8X0X7X7X4XOX=X8X<X_.* z h.h.r.4 F i.W } o.&.x.l.$.+.! ) ] p.k * _.gX<XqXqXwX4X5X1X8X7X7X8X8X",
"*X*X8X8XOX8X*X*X7X1X7X8X<X_.* :.i.#.H 4 D p.Q I I | l.l.&.+.` ) ] s.:.* '.gX<XwXwX8X5X4X1X1X8X8XqX8X",
"7X7X8X3X8X=X*X7X3X8X1X7X3X).$ >.c.h.G 4 F s.Q U K +.z.@.W U _ ] { s.:.$ _.gX5X8X8X3X5X1X3X8X7X8X8X8X",
"7X8XqX3X3X1X7X7XqX8X7X1XtX).: ,.B.v.G 2 D p.^ } | x.z.$.U L ^ ] { s.5.- S.5XtX=X8X1X4X4X3X8X2X8X8X8X",
"qX8XqX3X5XdX8XqXsXhX2X=X,XJ.: 6.C.b.D 2 D p.)  .l.g.&.$.W W ) ` ' y.6.Y.L.OX=X%X=X=X8X8X8X3X8X3X8X8X",
"hXqXqX3XgX5X1X9XhXhX8X2X=XK.D.r <.8.S i v G R O.l.g.$.o.U L ) ] R 1.T.E.$X=X*X*X&X=X8X8XqX8X8X8XqX8X",
"3XwX8X7X4X4X&X%X9XpXwX1X8X@XL.T.o v L V p 3 C ! k.&.*.$.I L ^ p.S g W.$X4X8XqXeX=X=XqXqX8X7X8X7X7X8X",
"dXqX8X7X4X#X%X-X9XqXwX3X3XtX6XE.X D / R k 3 V W k.&.&.&.! ! ~ R v o ^.5XgXjX<X7X7X2XqXeX7X7X=X7X8X8X",
"8X8XqX8X8XtX7X7X8X8X8X8X8X8X8X~.= 8.[ { k 3 N I +.~ ~ O.!  .^ R x . ^.gXiXjX8X4X5X5XqX}.7X-X7X8X8X8X",
"8X8X8X8XqX8X8X8X8X8X8X8X8X8X8X).1 :.H Z p u s K B B A A K R [ G z 0 `.xXpXpX#X#X5XdX9X}.-X7X8X8XqX8X",
"8X8X8X8X8X8XqX8X8X8X8X8XqX8X8X@XY.0 m q.G x i s L A P P L [ i.m ;.w $XlXpX|.=X>X5XdX2X9X7X7X1X8X8X8X",
"8X8XqX8X8X8X8X8X8X8XqX8X8X8X8X:XU.+ ;.9.d.8.f y N A E E { i.<.q > A.4XhX|.7X&X>X5X3XqXqX8X8X8X1X8X8X",
"8X8X8X8XqX8X8X8X8X8X8X8X8X8XqX=XI.G.R.e n G D p y Z J J J m q R.E.$XjXhX}.-X&X&X2XqXqXqX3X3X4X4X8X8X",
"8X8X8X8X8X8X8X8XqX8X8X8X8X8X8X7X;X&XU.Y.6 f j g O h h d k 9 7 U.@XyXsXpX9X-X&X%X7XqXqXqX3X3X4X3X8X8X",
"8X8X8X8XqX8X8X8X8X8X8X8X8X8X8X7XOXOX1XvX< & $ $ # : # @ 1 < H.=X3XlXiXeX7X=X;X*X7X9X9XqXwX5X5X8X3X8X",
"8XqX8X8X8X8X8XqXqX8X8X8X8X8X8X8X5X5XdX5XH.E.]./.~.!.(.~.S.).6X7XhXkXsXqX0XXXuXoX7X9XqXqXwX3X5X3X8X8X",
"8X8X8X8X8X8X8X8X8X8XrX8X8X8X8X8X5X5X5X5X1X1X4X#X4X#X#X7XdXdX5X3XhXeX7X4X4X4X3XqX7X7X7X8X8X2X3X3X8X8X",
"8X8X8X8X8XqX8X8X8X8X8X8X8X8X8X8X1X1X5X3XeXhXhX8XqXqXqXhXaXkX8X1XqXqX=X#X5X5X3XwX<X7X7X7X8X8XwX8X3XqX",
"8X8X8X8X8X8X8X8X8X8X8X8X8X8X8X8X8X8X8X8X}.9X1X1X*X*X7X1XeXqX8X7X7X*X#X#X5XdXdXwX8X=X7X0X7X7X3XdX8X8X",
"8X8X8XrX8X8X8XqX8XqX8X8XwX8X8X8X8X7X7X7X7X-X=X=X*X*X=X=X7X7X=X=X*X*X#X4XgXdXdXwX7X1X7X7X-X7XqXwX8X8X",
"8X8XqX8X8X8X8X8X8X8XqX8X8X8X8XqX8X7X8X4X7X9XhXhXqXqX1X8X8X1X#X#X=X=X=X4XhXjXhX8X#X8X8X7X-X7X8XdX8X8X",
"qX8XqX8X8XqX8X8X8X8X8X8X8X8X8XqX8X1X1X=X2XqX XpXqX8X7X=X8X8X8XOXOX=X1X3XhXhX9X*X=X4X3XqX[.-X8X3X3X8X",
"8X8X8X8X8X8X8XqX8X8X8X8X8X8X8XqX7X7X7X7X8X=X7X8X5X8X=X*XhXhXqX7X8X8X3XwXkXpX[.*X#X5X3XqX7X-X8X3X8XqX",
"8XrX8X8X8X8X8X8X8XqX8X8X8X8X8X8X7X7X8X7X1X>X*X0X4X1X*X7XhXkXpX9XqX3X3XhXpXpX-X%X=X4X2X8X9X-X1X3X3X8X",
"8X8X8X8X8X8XwX8X8XwXqXqX8X8XqX8X8X8XqX8X8X8X0X7X1X2X7X8X8XqXqXqX8X8XwXqXqXqXqX8X8X8X3XqX7X7X8X8X8X8X",
"8X8X8X8X8X8X8X8X8X8X8X8X8X8X8X8X8X8X8X8X8X8X8X8X8X8X8X8X8X8X8X8X8X8X8X8X8X8X8X8X8X8X8X8X8X8X8X8X8X8X"
};
