/* XPM */
static char *_67e522532064b82b0b345e708b23248Jt3ufxDtP8ziEvId[] = {
/* columns rows colors chars-per-pixel */
"50 50 137 2 ",
"   c None",
".  c black",
"X  c #020300",
"o  c #030400",
"O  c #040400",
"+  c #040501",
"@  c #070901",
"#  c #070802",
"$  c #090B01",
"%  c #090A02",
"&  c #0B0D01",
"*  c #0B0D03",
"=  c #0C0E02",
"-  c #0D0F03",
";  c #0E1102",
":  c #131605",
">  c #151903",
",  c #161905",
"<  c #181C03",
"1  c #1F2404",
"2  c #262D05",
"3  c #272D05",
"4  c #586615",
"5  c #5A6815",
"6  c #5F6E16",
"7  c #60710C",
"8  c #61730C",
"9  c #62730D",
"0  c #63750D",
"q  c #687A0D",
"w  c #697C0D",
"e  c #606F17",
"r  c #647418",
"t  c #6D7E1A",
"y  c #6E7F1A",
"u  c #6D810E",
"i  c #768B0F",
"p  c #778C0F",
"a  c #788D0F",
"s  c #788E0F",
"d  c #798E0F",
"f  c #6F801A",
"g  c #788E10",
"h  c #869E11",
"j  c #8BA412",
"k  c #8DA712",
"l  c #93AE13",
"z  c #9CB814",
"x  c #9DB914",
"c  c #9EBA14",
"v  c #A0BC14",
"b  c #90A622",
"n  c #93AA22",
"m  c #9CB520",
"M  c #9DB625",
"N  c #A3BE21",
"B  c #A0B926",
"V  c #A2BB26",
"C  c #A5C315",
"Z  c #ABCA16",
"A  c #ADCC16",
"S  c #AFCE16",
"D  c #A6C21E",
"F  c #B0D017",
"G  c #B7D817",
"H  c #B7D818",
"J  c #B9DA18",
"K  c #BDDE1F",
"L  c #BEDF1E",
"P  c #BEE018",
"I  c #A8C327",
"U  c #B3CE2A",
"Y  c #B3CF2A",
"T  c #B2CE2B",
"R  c #B3CE2B",
"E  c #B5D227",
"W  c #B6D327",
"Q  c #B7D525",
"!  c #B7D526",
"~  c #B6D427",
"^  c #B8D625",
"/  c #BBDB21",
"(  c #B9D823",
")  c #BBDA22",
"_  c #BDDD20",
"`  c #B9D824",
"'  c #BAD924",
"]  c #BBDA24",
"[  c #B3D02A",
"{  c #B4D029",
"}  c #B4D129",
"|  c #B4D02A",
" . c #B4D12A",
".. c #B5D22B",
"X. c #B6D22B",
"o. c #B6D32B",
"O. c #B8D42B",
"+. c #B8D52B",
"@. c #C2E515",
"#. c #C2E617",
"$. c #C3E519",
"%. c #C3E618",
"&. c #C3E619",
"*. c #C2E51A",
"=. c #C3E61A",
"-. c #C4E719",
";. c #C4E61A",
":. c #C4E71B",
">. c #C0E11C",
",. c #C0E11D",
"<. c #C0E21C",
"1. c #C4E819",
"2. c #C5E819",
"3. c #C5E919",
"4. c #C6E919",
"5. c #C6EA19",
"6. c #C6E91A",
"7. c #C8EC1A",
"8. c #C9ED1A",
"9. c #C9EE1A",
"0. c #CDEC34",
"q. c #CDEC35",
"w. c #D1EF41",
"e. c #D2EF43",
"r. c #D2F045",
"t. c #D3F046",
"y. c #D4F14A",
"u. c #D7F252",
"i. c #D7F352",
"p. c #DBF55E",
"a. c #DCF55E",
"s. c #DCF55F",
"d. c #DCF65F",
"f. c #E0F86B",
"g. c #ECFF8C",
"h. c #ECFF8D",
"j. c #ECFF8E",
/* pixels */
"                                &.&.&.&.&.&.&.&.&.&.&.<.} U U [ [ U                                 ",
"                                &.&.&.&.&.&.&.&.&.&.&.&.~ } [ U U [                                 ",
"                                &.&.&.&.&.&.&.&.&.&.&.&.W [ U [ [ U                                 ",
"                    &.&.&.&.&.&.&.&.&.&.&.&.&.&.&.&.&.&.W U [ U U [ U [ [ U [ U                     ",
"                  &.&.&.&.&.&.;.&.&.&.&.&.&.&.&.&.&.&.<.W [ U [ [ U [ U [ U [ U [                   ",
"                  &.&.&.&.:.;.;.&.&.&.&.&.&.&.&.&.&.&.&.W U [ U U [ U [ U [ U [ U                   ",
"            &.&.&.&.&.&.w.f.f.y.&.&.&.&.&.&.&.&.&.&.&.&.W [ U [ [ U [ U [ U [ U [ U [ U             ",
"            &.&.&.&.&.&.i.j.j.d.&.&.&.&.&.&.&.&.&.&.&.&.W U [ U U [ U [ U [ U [ U [ U [             ",
"            &.&.&.;.&.#.u.j.g.a.&.&.&.&.&.&.&.&.&.&.&.&.W U U U [ U [ U [ U [ U U [ U [             ",
"        &.&.&.&.&.w.a.a.u.w.e.0.&.&.&.&.&.&.&.&.&.&.&.&.K K _ ~ U [ U [ U [ U [ [ U [ U [ U         ",
"      &.&.&.&.&.&.a.j.j.i.#.#.#.&.&.&.&.&.&.&.&.&.&.&.#.&.&.&.^ [ U [ U [ U [ U U [ U [ U [ [       ",
"      &.&.&.&.#.&.a.j.j.i.#.;.&.&.&.&.;.#.;.6.6.6.6.6.6.;.&.&.^ U [ U [ U [ U [ [ U [ U [ U U       ",
"      &.&.&.w.i.i.i.i.i.0.#.&.&.&.&.&.&.&.F q 8 8 8 8 q F 1.&.~ [ U [ U U [ U [ U [ U [ U [ U       ",
"      &.&.:.f.j.g.r.#.#.#.;.&.&.&.&.&.&.6.x = . . . . = x 6.&.( U [ U [ [ U [ U [ U [ U [ U [       ",
"      &.&.:.f.j.g.r.#.&.;.&.&.&.#.;.6.3.8.v = . . . . = v 8.6.^ R U U [ U [ U [ U [ U [ U [ U       ",
"      &.&.;.y.d.p.0.&.&.&.&.&.&.;.%.A s p 8 % . . . . @ 7 s s D ^ / W U [ U [ U [ U [ U [ U [       ",
"&.&.&.&.&.&.&.&.&.&.&.&.&.&.&.#.&.5.j + . . . . . . . . . . + j 6.;./ [ U [ U [ U [ U [ U [ U [ U [ ",
"&.&.&.&.&.&.&.&.&.&.&.&.&.&.&.3.6.8.k + . . . . . . . . . . + k 8.6.` U [ U [ U [ U [ U [ U [ U [ U ",
"&.&.&.&.&.&.&.&.&.&.&.&.&.&.6.A j k 0 + . . . . . . . . . . + 0 k j N ..U [ U [ U [ U [ U [ U [ U [ ",
"&.&.&.&.&.&.&.&.&.&.&.&.&.&.5.s + + + . . . . . . . . . . . . . + + f o.[ U [ U [ U [ U [ U [ U [ U ",
"&.&.&.&.&.&.&.&.&.&.&.&.;.6.8.s . . . . . . . . . . . . . . . . . . f O...} [ U U [ U [ U [ U [ U [ ",
"&.&.&.&.&.&.&.&.&.&.&.;.F x c 7 . . . . . . . . . . . . . . . . . . 4 n b B [ R [ U [ U [ U [ U [ U ",
"&.&.&.&.&.&.&.&.&.&.&.6.q % ; % . . . . . . . . . . . . . . . . . . + - % e ..} U [ U [ U [ U [ U [ ",
"&.&.&.&.&.&.&.&.&.;.#.3.8 . . . . . . . . . . . . . . . . . . . . . . . . 5 ..U [ U [ U [ U [ U [ U ",
"&.&.&.&.&.&.&.&.&.&.&.6.u > < ; . . . . . . . . . . . . . . . . . . - , : r ..[ U [ U [ U [ U [ U [ ",
"&.&.&.&.&.&.&.&.&.&.&.&.G Z A w . . . . . . . . . . . . . . . . . . e B M I U [ [ U [ U [ U [ U [ U ",
"&.&.&.&.&.&.&.&.&.&.&.&.1.6.6.s . . . . . . . . . . . . . . . . . . f O.} } R U U [ U [ U [ U [ U [ ",
"&.&.&.&.&.&.&.&.&.&.&.&.&.&.3.p . . . . . + = = ; = = & . . . . . . t o.U [ U [ [ U [ U [ U [ U [ U ",
"&.&.&.&.&.&.&.&.&.&.&.&.&.1.6.p . . . . . 1 l x x x x l 2 . . . . . t o.U [ U [ U [ U [ U [ U [ U [ ",
"&.&.&.&.&.&.&.&.&.&.&.&.&.%.5.p . . . . . 2 J 6.3.3.6.J 2 . . . . . t o.[ U [ U [ U [ U [ U [ U [ U ",
"&.&.&.&.&.&.&.&.&.&.&.&.&.&.6.p . . . . . 2 G &.#.&.6.G 2 . . . . . t o.U [ U [ U [ U [ U [ U [ U [ ",
"&.&.&.&.&.&.&.&.&.&.&.&.&.&.6.p . . . . . 2 G 6.&.&.;.G 2 . . . . . t ..[ U [ U [ U [ U [ U [ U [ U ",
"&.&.&.&.&.&.&.&.&.&.&.&.&.&.6.p . . . . . 2 G &.&.&.1.G 2 . . . . . t } U [ U [ U [ U [ U [ U [ U [ ",
"&.&.&.&.&.&.&.&.&.&.&.&.&.&.6.p . . . . . 2 G 1.&.&.&.G 2 . . . . . t O.[ U [ U [ U [ U [ U [ U [ U ",
"      &.&.&.&.&.&.&.&.&.&.&.6.C p p p i p j J &.&.&.&.P h s p s p g m } U [ U [ U [ U [ U [ U       ",
"      &.&.&.&.&.&.&.&.&.&.&.1.%.6.6.6.6.6.6.%.1.&.&.&.&.3.3.3.3.6.6.] R [ U [ U [ U [ U [ U [       ",
"      &.&.&.&.&.&.&.&.&.&.&.&.&.&.&.&.&.&.&.&.&.&.&.&.&.&.&.%.;.&.&./ U U [ U [ U [ U [ U [ U       ",
"      &.&.&.&.&.&.&.&.&.&.&.&.&.&.&.&.&.&.&.&.&.&.&.&.&.&.&.%.K / / } [ [ U [ U [ U [ U [ U [       ",
"      &.&.&.&.&.&.&.&.&.&.&.&.&.&.&.&.&.&.&.&.&.&.&.&.&.&.&.&.~ U U [ U U [ U [ U [ U [ U [ U       ",
"      &.&.&.&.&.&.&.&.&.&.&.&.&.&.&.&.&.&.&.&.&.&.&.&.&.&.&.&.^ U [ U [ [ U [ U [ U [ U [ U [       ",
"        &.&.&.&.&.&.&.&.&.&.&.&.&.&.&.&.&.&.&.&.&.&.&.&.&.&.&.^ U [ U [ U [ U [ U [ U [ U [         ",
"            &.&.&.&.&.&.&.&.&.&.&.&.&.&.&.&.&.&.&.&.&.&.&.&.&.^ [ U [ U [ U [ U [ U [ U             ",
"            &.&.&.&.&.&.&.&.&.&.&.&.&.&.&.&.&.&.&.&.&.&.&.&.&.^ U [ U [ U [ U [ U [ U [             ",
"            &.&.&.&.&.&.&.&.&.&.&.&.&.&.&.&.&.&.&.&.&.&.&.&.;.^ [ U [ U [ U [ U [ U [ U             ",
"                  &.&.&.&.&.&.&.&.&.&.&.&.&.&.&.&.&.&.&.&.&.&.^ U U [ U U [ U [ U                   ",
"                  &.&.&.&.&.&.&.&.&.&.&.&.&.&.&.&.&.&.&.&.&.&.~ U [ U [ [ U [ U [                   ",
"                    &.&.&.&.&.&.&.&.&.&.&.&.&.&.&.&.&.&.<.<.,.` ~ } } [ U [ [ U                     ",
"                                &.&.&.&.&.&.&.&.&.&.&.&.^ Y ..P &.&.                                ",
"                                &.&.&.&.&.&.&.&.&.&.&.&.} [ U K &.&.                                ",
"                                &.&.&.&.&.&.&.&.&.&.&.&.~ U } K &.&.                                "
};
