/* XPM */
static char *result[] = {
/* columns rows colors chars-per-pixel */
"50 50 250 2 ",
"   c #010201",
".  c #030A00",
"X  c #02020A",
"o  c #090A04",
"O  c #031100",
"+  c #0B1300",
"@  c #0B1900",
"#  c #131B00",
"$  c #020112",
"%  c #070614",
"&  c #142300",
"*  c #192400",
"=  c #232D00",
"-  c #253100",
";  c #293700",
":  c #5F7400",
">  c #5A6F00",
",  c #647906",
"<  c #66771A",
"1  c #5A6235",
"2  c #687627",
"3  c #6C7837",
"4  c #6A8002",
"5  c #748A09",
"6  c #768918",
"7  c #788F0B",
"8  c #7B8E23",
"9  c #498E33",
"0  c #3B8E7B",
"q  c #3D937B",
"w  c #519558",
"e  c #60A14F",
"r  c #599266",
"t  c #428B7E",
"y  c #47977A",
"u  c #4D936A",
"i  c #5AA26C",
"p  c #829619",
"a  c #839D08",
"s  c #94AD1A",
"d  c #8C9F33",
"f  c #889E20",
"g  c #9BB525",
"h  c #95A938",
"j  c #97AC2F",
"k  c #A4BA36",
"l  c #A1B92A",
"z  c #B6DA09",
"x  c #ACCC1D",
"c  c #ABCD1B",
"v  c #B3CC1E",
"b  c #B9CB18",
"n  c #ACD21C",
"m  c #A5D21F",
"M  c #B3D313",
"N  c #B3D21C",
"B  c #BBDA18",
"V  c #AEC908",
"C  c #BDE504",
"Z  c #BEE30D",
"A  c #BAE709",
"S  c #BDE313",
"D  c #BEED12",
"F  c #BDE31B",
"G  c #B7E81A",
"H  c #BBF019",
"J  c #ADCC24",
"K  c #AFCC2C",
"L  c #A9C728",
"P  c #B2CE25",
"I  c #BBCC25",
"U  c #B2CE2B",
"Y  c #BBCB2C",
"T  c #B5C62A",
"R  c #ADD324",
"E  c #ACD32A",
"W  c #A7D527",
"Q  c #B3D223",
"!  c #BBD525",
"~  c #BCDB24",
"^  c #B4D22B",
"/  c #BAD32B",
"(  c #BCDB2A",
")  c #B1D929",
"_  c #ACC934",
"`  c #BDC734",
"'  c #B3CC33",
"]  c #BACB33",
"[  c #B4CC3B",
"{  c #B9CA38",
"}  c #ACD33A",
"|  c #A9D433",
" . c #B5D233",
".. c #B4D33B",
"X. c #BBD43B",
"o. c #BBD636",
"O. c #BBE123",
"+. c #B9E728",
"@. c #B9E736",
"#. c #B4E92E",
"$. c #9DCA31",
"%. c #C1D809",
"&. c #C8DE17",
"*. c #D4DC15",
"=. c #C2E501",
"-. c #C3E904",
";. c #C1E50C",
":. c #C3E90D",
">. c #CAEA0A",
",. c #C3E615",
"<. c #C4E914",
"1. c #C3E51C",
"2. c #C5E91A",
"3. c #C9EC1C",
"4. c #CAE616",
"5. c #D0EA1C",
"6. c #C7F118",
"7. c #CEF011",
"8. c #C2DE2B",
"9. c #C2DC25",
"0. c #C2DD34",
"q. c #C8D933",
"w. c #C5CF2E",
"e. c #C3E423",
"r. c #CBE324",
"t. c #C6E922",
"y. c #CAEB23",
"u. c #C4E32C",
"i. c #CAE32C",
"p. c #C4EA2B",
"a. c #CBEA2B",
"s. c #D5F327",
"d. c #C5E333",
"f. c #C6E23C",
"g. c #CAE53C",
"h. c #C9EA35",
"j. c #D5EF31",
"k. c #8F9E41",
"l. c #94A345",
"z. c #99B157",
"x. c #ABBD5A",
"c. c #9BCB51",
"v. c #A6CB49",
"b. c #B6CD4A",
"n. c #ABD546",
"m. c #B7D246",
"M. c #A3CA57",
"N. c #B1D857",
"B. c #B5E94A",
"V. c #ACE358",
"C. c #B4E458",
"Z. c #B5EB48",
"A. c #8DCA66",
"S. c #9BCB65",
"D. c #9BD377",
"F. c #90CC74",
"G. c #A2CC63",
"H. c #AED769",
"J. c #ABE666",
"K. c #AAE678",
"L. c #B4E361",
"P. c #9AE377",
"I. c #C7DF43",
"U. c #CBE642",
"Y. c #C8E248",
"T. c #CDF548",
"R. c #DCF74A",
"E. c #CDF653",
"W. c #D7F554",
"Q. c #E4FB56",
"!. c #DCF865",
"~. c #E7FD68",
"^. c #E3FF73",
"/. c #1E849A",
"(. c #3A8C89",
"). c #3E9587",
"_. c #3D8D96",
"`. c #3B9397",
"'. c #20869D",
"]. c #1E99BD",
"[. c #1E96A4",
"{. c #2489AB",
"}. c #3597AB",
"|. c #298CB8",
" X c #2D93BD",
".X c #2B96B7",
"XX c #3192BC",
"oX c #3296B4",
"OX c #2890AD",
"+X c #3CA3AA",
"@X c #458D86",
"#X c #439483",
"$X c #42948B",
"%X c #479B8A",
"&X c #469697",
"*X c #4B8F95",
"=X c #47A291",
"-X c #4698A7",
";X c #428FA3",
":X c #54A0BA",
">X c #7ABD92",
",X c #7ED29E",
"<X c #1A8DCB",
"1X c #1C9BCB",
"2X c #1A94CD",
"3X c #1D8CD9",
"4X c #1C97D6",
"5X c #2989CD",
"6X c #2D93C2",
"7X c #2B93CC",
"8X c #2797CB",
"9X c #3393C3",
"0X c #3596C8",
"qX c #238ED4",
"wX c #2D8CD4",
"eX c #2A8EDC",
"rX c #268ADA",
"tX c #3389D8",
"yX c #2593D4",
"uX c #2A92D5",
"iX c #2499D5",
"pX c #2592DA",
"aX c #2A92DA",
"sX c #289AD8",
"dX c #3292D4",
"fX c #3292DB",
"gX c #319CD4",
"hX c #318BC7",
"jX c #29A1CB",
"kX c #1F8DE2",
"lX c #2A8CE4",
"zX c #2B8EED",
"xX c #2D94E3",
"cX c #2A98E5",
"vX c #3593E7",
"bX c #3389EC",
"nX c #15A1C5",
"mX c #95CA88",
"MX c #97D889",
"NX c #96CB94",
"BX c #95D597",
"VX c #89CE8C",
"CX c #A9DD8A",
"ZX c #A9E78A",
"AX c #95D4A5",
"SX c #98E1A6",
"DX c #A2E2A5",
"FX c #92E690",
"GX c #E8FF88",
"HX c #F1FF81",
/* pixels */
"1X1XyXaXfXtXvXrXrXsX3XcXpX3XaX`.L.1.1.1.1.1.:.-.1.1.2.1.Q P ^ P Y G.`.pXlXcXpX1X1XnXzXbXfXdXwXtXeXuX",
"1X2XqXeXfXtXvXxXyXgX0X{.XX0X|.q V.1.,.<.1.1.:.:.1.1.1.e.Q P Q P ] M.`.6XhX0X X X].1XxXlXrXwXwXfXuXuX",
"yXpXxXzXxXaX<X<XjX/.=Xq t @X%Xw @.:.:.,.1.1.:.<.1.O.1.1.N n Q Q J c.i -X*X*X@X$XoX].cX3XsXfXdX5XuXuX",
"fXaXlXrXyXsX4XgX.X).MXK.CXCXZXV.+.:.:.<.1.1.,.,.1.1.2.1.! P ^ J E n.A.VXNXNXmXNX&X{.aX4XyX7XuXuXuXuX",
"wXwXaXyX].].2X|.`.DXB.G O.@.#.+.F <.<.,.1.1.,.,.1.1.2.1.N P ' E L W W } N.m. .v.NX-X5XqX8X8XyXyXuXuX",
"tXeXaXiX8X[.+X#Xr H.O.C 4.3.,.,.,.,.,.,.1.1.,.<.,.1.,.1.! R ' '  .^ M M v b V L S.r (.oX X8X4X4XuXuX",
"vXlX4X2X1X`.FXV.N.g.r.a.U.W.Q.R.e.e.1.1.1.1.,.,.,.,.2.1.N K [ [ ' P N I ` w.w.X.b.M.D.AX}.pX3XzXpXuX",
"lXeXsXiX0X).J.G *.*.r./ ~.HX~.Q.u.e.1.1.1.1.1.2.1.,.<.S B v ' [ ] Y ^ T T ` { ' U J | S.).0XlXzXaXuX",
"eXwX8XOX-Xw m.&.*.*.*.i.W.^.~.R.e.,.<.<.Z 2.e.e.e.1.,.,.B V Q Q I I P P U ' U P b Y ] c.w $X5XbXeXuX",
"aXuX'.=XSXH.U.*.*.j.R.W.E.E.T.h.t.1.:.<.<.B t.u.O.t.,.2.Z S e.N I Y ' | E E R n b b T b.c.mX:XtXeXuX",
"3X8X%XMXB.+.i.&.&.R.GXGXE.+.F F ( p.S ;.>.C t.t.1.1.1.y.,.1.e.Q Q U [ [ E W n N ! I U ! M n.>XoX7XuX",
"sX.Xy K.G -.r.8.u.W.GXGXT.D S 2.1.a.<.A 7.<.u.0.U.f.0.d.e.1.O.~ Q E { ' W W R P I P | c z n F.&XXXuX",
"pX0X@XD.h.4.U.!.E.E.E.h.h.2.1.1.2.:.;.;.B N , < < < , , x e.,.M n K P Q R W [ { ^ J n.K b / F.#XXXuX",
"3X X*XCX@.,.Q.HX^.E.p.G 1.t.e.1.3.z Z s.d.g @ .   . . & g j.a.z v ^ Q v n J b.[ E R v.[ I [ mX#XXXuX",
"xXOX#XZX+.2.Q.~.~.T.1.S 2.t.r.r.t.1.2.p.0.k @     X   @ h Y.( ( ! I ^ Q N Q ] ] E E [ ' v _ VX).9XeX",
"`.#Xw J.) <.j.Q.R.h.D <.2.e.9.i.8.i.c 7 5 < + X $ %   . 2 8 5 L / ! Q ! N v Y U R K _ w.I } D.u $X`.",
"L.V.B.+.1.:.1.1.F 3.Z Z B y.e.O.e.f.s O .       $ $ o     O . f d.a.~ n N N ! U U ' ' U P J n.M.G.G.",
"e.1.1.<.<.<.,.1.<.3.<.7.:.,.t.i.f.I.d .   X     $ X         @ l.Y.( ~ N c N Q ^ U ' U K P Q P P ^ ^ ",
"e.e.1.,.1.1.e.e.t.B Z ,.,.2.p.L j k.2 o   X           . X   . 1 l.f T w.x v P U ' ' U U U P Q P J ^ ",
"1.1.,.1.1.e.e.e.t.y.3.,.S e.( 7 . . .     X   .           X   + . + , k  .o.^ U ^ U U U U ^ J P ^ P ",
",.:.,.,.1.1.e.e.,.Z Z Z 2.h.U.6 .     X   X       X     X $ X     . 3 H.b._ ' U K ^ P U U U ^ N P P ",
";.;.:.<.,.1.1.1.3.,.z y.Q g k 2         X             X   X X $ X X 1 z.d k ..^ J Q ^ U U ' J ^ P U ",
":.:.:.:.<.,.1.1.B y.a.0.: @ + +     .       X                 .     . + + > T ) N N P U U U U U ^ K ",
":.:.,.,.1.1.1.1.1.y.O.Y., O                   X   X     . .         .   . :  .v N P K U K ^ ' U P ^ ",
"1.1.1.1.1.1.e.1.2.S 1.0.5 & & +           X                         + # & ,  .Q ^ P ^ K U U U U K U ",
"e.e.e.e.e.e.1.1.<.4.3.t.K _ x.3       X   X                       o 1 z.h k X.x J U U ' ' U U U P ^ ",
"1.1.1.1.1.1.1.,.;.-.=.C ,.h.U.8 .     X X $ %     o     o o   X   o 3 N.m.' ' K ' ' ' U K ^ P P U K ",
",.,.1.,.1.1.1.1.<.-.C -.:.B O.7       X X   #   + + + #           o < b.x v U ' ' ' U U U U ^ U P ^ ",
":.:.:.:.<.,.e.e.t.1.,.,.t.a.f.6           - h k l j k l.= . X X     6 X.c ! U ' [ } U U P P U U U P ",
",.:.:.Z <.,.1.1.e.1.1.1.e.u.0.5 .         ; _ 9.i.9.U.b.=     X X   < ..c M P ..' ' U P n P ' ' U ^ ",
"e.e.<.<.,.,.1.1.1.1.,.3.t.e.d.p o         ; 0.a.y.e.i.m.= .       . 2 N.^ N Q U ' ' Q N N P _ [ U U ",
"u.e.e.F <.<.,.1.,.2.Z Z S y.h.5       .   = { e.,.1.e.X.-     .   o 2 b.K I / J U U n v M ^ ' [ U U ",
"i.e.p.G A A 6.4.&.;.:.:.Z t.U.6 .         * m.y.3.1.e.{ - .       . 6 m.Y ] T  .U ^  .P Q x ]  .' ' ",
"C.N.B.Z.H A <.&.4.4.,.,.A F q.p . .   . O ;  .2.,.1.t.K ; . . . . O , L ' [ ' ' P P ^ K ) ^ ..z.M.S.",
"`.q i V.G C r.j.,.,.1.1.:.,.u.g 5 5 6 6 8 p O.Z ,.,.2.t.a 5 5 6 5 5 g ..| | K U Q J E Q n W F.i $X&X",
"iX.X%XP.+.>.~ i.Z <.1.e.,.:.3.,.p.h.g.U.I.f.a.<.3.Z Z t.i.g.h.u.U.f.@.| W L  .U ! R ^ P M | VX`.|.7X",
"qXoXu D.O.4.q.q.D H H +.G G :.:.,.1.,.,.1.3.:.:.:.:.<.,.1.,.1.1.9.i.) m n I w.' R c P I M | BX`.6XyX",
"fX0Xy K.e.4.i.q.G D G H +.F z :.S ,.<.:.:.>.A Z ,.,.3.1.<.B ,.,.&.9.n R I Y Y T n P T w.b _ NX;X XyX",
"3X6X@XK.1.=.5.i.<.A A t.9.i.r.r.r.e.2.Z -.-.4.3.,.1.1.B 1.1.9.! P P P P ] w.` Y R ^ Y w.%.k NX*X9XaX",
"4X8X`.DXZ.Z r.1.:.C Z 3.&.r.1.1.p.O.1.:.>.:.1.~ 1.1.p.e.1.t.u./ U L P Y ] ' L I J  .k { w.v.AX;X9XwX",
"4X1X X&XMXV.+.:.7.%.5.Z C :.A 6.1.e.1.<.:.,.O.u.O.1.t.1.<.<.e.N Q x ! n R ) x Q  .J  .n.M.mX&XoX7XuX",
"nX2X2X{.=Xe } <.%.s.1.F 6.<.H A ,.,.<.,.:.,.d.d.e.2.2.<.A <.e.! I c n c m R J U J o.) v.r *X'.8XuXaX",
"cXsXcXgXoX0 J.@.a.9.o.f.@.@.p.F ,.<.,.,.,.,.u.u.1.<.4.:.-.:.1.~  .[ .. .{ w.{ ' _ ..$.A.`.7X1X4XuXaX",
"rXrX3X4X7X}.SXK.E.X.h.p.~ ( t.4.,.,.,.,.,.,.u.u.1.:.<.:.-.;.e.) K K K T { { ] ` b.G.F.,XoXcX4X4XyXaX",
"dXwXvXcXsX6XoX0 9 B.G =.5.>.>.%.,.1.1.1.,.1.e.t.,.:.;.,.<.2.u.! ^ Q N M N b %.Y x.r &XoX|.7XuXsXyXpX",
"dX5XxX3X2XiXrX0Xy P.@.G y.9.F y.1.1.1.1.1.,.1.1.<.;.,.2.1.t.u.! J R W | } | U v.NX&X8X4XsXfX5XwXuXyX",
"hXtXxXlXpXcXkXaX.X%XFXZXZXZXMXJ.@.,.,.1.,.,.1.1.1.,.1.1.F F ~ ~ ~ n.A.F.BXmXNXNX`.|.4X4XwXwXtXvXwXuX",
"dXdXeXxXpX3XcXpX7XXX`.).0 ).).w B.<.,.,.,.,.<.1.1.1.1.1.M N ~ ~ h.n.i )._._.*X_..X8X4XsXrXtXtXtXuXuX",
"wXwXaXpXuXpXrXpXuX7X9X XXXXXXXy V.,.2.,.,.,.1.1.,.<.1.1.! R ! ~ u.C.y  X9X6X9X9X6XyXuXpXpXpXwXdXwXaX",
"uXuXuXuXuXuXuXuXuXuXuXaXuXuXuX`.V.,.1.,.,.,.e.e.,.<.<.1./ U Q ~ u.V.).7XaXpXwXwXuX7XwXaXpXpXuXuXuXuX"
};
