/* XPM */
static char *_d6152b6c2bc43f4e922a554e8be4f8bsoDrVkocOQ0sXexS[] = {
/* columns rows colors chars-per-pixel */
"50 50 224 2 ",
"   c #020204",
".  c #00040C",
"X  c #010711",
"o  c #27221E",
"O  c #000924",
"+  c #1F2629",
"@  c #242527",
"#  c #332920",
"$  c #0B334D",
"%  c #37454B",
"&  c #184462",
"*  c #3B637D",
"=  c #555C5D",
"-  c #5B5C5B",
";  c #5B5754",
":  c #4B595C",
">  c #625C58",
",  c #615A4A",
"<  c #5C625E",
"1  c #6C615D",
"2  c #535C62",
"3  c #5B5C62",
"4  c #475C6C",
"5  c #605D64",
"6  c #596369",
"7  c #476574",
"8  c #5A6A76",
"9  c #4A656C",
"0  c #656568",
"q  c #6B7378",
"w  c #767577",
"e  c #706C6B",
"r  c #887E78",
"t  c #83706A",
"y  c #87847D",
"u  c #346B8E",
"i  c #1B7EB7",
"p  c #347DAC",
"a  c #446985",
"s  c #4E7C98",
"d  c #4A7893",
"f  c #747B81",
"g  c #6A7C86",
"h  c #497EA3",
"j  c #1E88BC",
"k  c #2C84BC",
"l  c #2E89BE",
"z  c #3B87BA",
"x  c #3D8ABC",
"c  c #3787B6",
"v  c #3D8AB7",
"b  c #568199",
"n  c #45829F",
"m  c #7C8080",
"M  c #7A848D",
"N  c #688397",
"B  c #7E8891",
"V  c #4B83A4",
"C  c #4383AC",
"Z  c #4D85AB",
"A  c #4C8AAD",
"S  c #4786A5",
"D  c #5688A6",
"F  c #4386B3",
"G  c #448AB4",
"H  c #4A8AB4",
"J  c #428CBC",
"K  c #4A8AB8",
"L  c #4D91BE",
"P  c #4592BB",
"I  c #5291BB",
"U  c #508DB9",
"Y  c #628AA5",
"T  c #6891A3",
"R  c #7E97A8",
"E  c #6192B3",
"W  c #1D8BD5",
"Q  c #1E96DC",
"!  c #1C93D8",
"~  c #2D8CC4",
"^  c #258CCE",
"/  c #2C8DCC",
"(  c #2986C4",
")  c #348DC4",
"_  c #3C8CC3",
"`  c #338ECD",
"'  c #3A8CC8",
"]  c #3387C3",
"[  c #2695CE",
"{  c #2B92CF",
"}  c #2A92C7",
"|  c #3391C5",
" . c #3391CC",
".. c #3B93C6",
"X. c #238ED4",
"o. c #2C8FD4",
"O. c #2C8FDB",
"+. c #238DDB",
"@. c #318ED3",
"#. c #328CD9",
"$. c #2593D5",
"%. c #2992D6",
"&. c #2493DB",
"*. c #2A92DA",
"=. c #2B9ADD",
"-. c #3393D4",
";. c #3996D3",
":. c #3199DC",
">. c #3797D8",
",. c #1D95E3",
"<. c #1998E7",
"1. c #148DE0",
"2. c #2393E3",
"3. c #2992E1",
"4. c #2B99E2",
"5. c #2598E6",
"6. c #2A98E9",
"7. c #4489C2",
"8. c #4A93C3",
"9. c #4594C7",
"0. c #5397C3",
"q. c #42A4E5",
"w. c #8C8784",
"e. c #898A89",
"r. c #948C87",
"t. c #888D90",
"y. c #9A999A",
"u. c #879497",
"i. c #A89995",
"p. c #A7A69F",
"a. c #929DAA",
"s. c #A29CA0",
"d. c #99A2A8",
"f. c #92A3B3",
"g. c #A9A9A8",
"h. c #B6AEA8",
"j. c #BBB4AD",
"k. c #A8ADB5",
"l. c #ADB4B6",
"z. c #B9B6B4",
"x. c #BBBBB5",
"c. c #B4BBBD",
"v. c #BBBBBB",
"b. c #B5B7B7",
"n. c #B0AEBB",
"m. c #C4B9AD",
"M. c #C2B5B3",
"N. c #C3BBB5",
"B. c #C2BDBB",
"V. c #C9BAB9",
"C. c #D1BFBF",
"Z. c #BDC2BD",
"A. c #B7C0BB",
"S. c #C7C3BB",
"D. c #98BBD5",
"F. c #88B0CA",
"G. c #ABBCC5",
"H. c #B4BEC3",
"J. c #BCBDC1",
"K. c #B7BACA",
"L. c #C6BBC1",
"P. c #95C2DC",
"I. c #BBC1C4",
"U. c #A5C3D3",
"Y. c #A9C4D8",
"T. c #B7CBD9",
"R. c #ACC3CB",
"E. c #98C5E6",
"W. c #8ED9FF",
"Q. c #98D4F8",
"!. c #9AD0EF",
"~. c #A2C6E3",
"^. c #A2CBE8",
"/. c #A8D5EC",
"(. c #B6D4E8",
"). c #AAD6F7",
"_. c #B7DEFB",
"`. c #B0CFE4",
"'. c #BAE7FD",
"]. c #BEF3FF",
"[. c #C1C3C4",
"{. c #C3C6C9",
"}. c #D3CAC7",
"|. c #C7CAD3",
" X c #C9D5DC",
".X c #DEDBD5",
"XX c #DCDBDC",
"oX c #D7D6D6",
"OX c #E3DDDB",
"+X c #DCE2DD",
"@X c #E2E2DC",
"#X c #E8E4DA",
"$X c #CADAE7",
"%X c #D2DDE4",
"&X c #DBDDE2",
"*X c #E5DAE2",
"=X c #DBE3E7",
"-X c #C7E9FC",
";X c #D6EBF8",
":X c #CBFFFF",
">X c #DCFDFF",
",X c #D8FAFF",
"<X c #CEE7EE",
"1X c #E3E3E4",
"2X c #E2EAED",
"3X c #EBEAEB",
"4X c #E8E7E7",
"5X c #F3EAE7",
"6X c #EEF1E9",
"7X c #FEF5ED",
"8X c #F6F5EE",
"9X c #F6EFF1",
"0X c #E4FFFF",
"qX c #ECFEFF",
"wX c #EBF3F9",
"eX c #F5F4F2",
"rX c #FDF5F4",
"tX c #F4FAF4",
"yX c #FDFBF4",
"uX c #F5F5FC",
"iX c #FBF6FB",
"pX c #F4FEFF",
"aX c #FDFEFD",
"sX c #E4EBF3",
/* pixels */
"&.*.%.{ $.&.2.2.2.2.2.$.{ %.&.' a 2 - - ; = 3 ; > , > , 3 3 3 - 2 4 D J { 5.1.<.5.&.o.o.o.O.2.2.&.O.",
"O.*.$.{ { $.2.2.2.*.O.%.{ %.*.' * 2 = < - 3 5 3 ; , > - 5 3 ; 3 2 u Z 7.{ 4.Q ,.2.*.@.@.@.%.&.&.&.%.",
"O.%.%.{ { o.O.O.O.%.%.$.[ { %.' u 8 : = 3 ; 5 > - < - - 3 3 ; 3 a u z ` X.=.! $.%.o.` ' ` @.o.%.%.%.",
"O.%.$.$.{ %.o.@.@.@.{ $.$.$.o.' V b 7 9 2 3 > 5 = 6 : 2 3 3 3 7 H k ` ` ^ %.%.%./  .@.` ` ` { o.%.%.",
"*.%.&.$.$.%. .` ' @.o.$.&.$.%.` F A u * * 6 5 5 - 6 : 6 8 4 7 u ;.+.*.o.~ | |  .%.%.O.&.*.*.%.%.&.$.",
"%.%.&.Q &.$.@.` ` @.%.&.Q &.%.` ' 9.c v V a.a.s.y.d.d.d.f.s H _ o.2.*.-.o.| { / %.*.2.2.2.+.%.%.%.%.",
"' ` $.Q ,.&.O.@.%.*.Q Q Q $.` ` ^ %.$.-.8.~.K.L.B.S.B.I.Y.Z ;.$.X.o.o.*.*.$.=.+.&.2.3.2.&.%.%.%.o.{ ",
"` { &.Q $.o.' _ 7.' %.$.&.&.o.@.%.+.,.! _ E.K.L.N.m.V.H.Y.v &.<.&.O.*.3.Q &.=.%.` ' ' ' ` ` o.$.%.%.",
"3.+.&.$.| W./.`.`.).H ~ $.! 6.+.%.W 2.O.7.^.L.V.S.m.S.b.Y.C $.<.6.W 2.5.2.&.| C ^.(.`./.Q._ X.,.&.&.",
"o.-.-.l G /.$XI.I.T./.G ../ -.@.| >.( ' h D.K.L.m.m.V.I.G.E l $.` @.O.^ o.( H ).(.{.[. X/.H ~ -.%.%.",
"F H H n D $X2X1X3X=X;Xb S S H U H C 0.h ).a.s.i.}.h.p.t.d.(.D S Z Z U C L A D -X=X=XXX2X$XT V S Z A ",
"0X0X0X0X0XpXaXaXrXaXpX>X0X0X>X>X>X>X-X-X&Xf ; r g.Z.m 6 w  X<X>XqX,XqX0X0X0XqXpXaXaXaXaXaXqXqXqX0X0X",
"qXqXpXpXpXaXrXaXaXaXtXpXpXqXpXpXqXwX;XoXoXe 1 w.Z.A.e.6 w XXoX1XtXwXtXaXtXaXaXeXaXaXaXwXpXpXpXpXpXpX",
"aXaXaXaXtXyXaXaXaXaXaXyXaXaXaXuXaXuX4X@X#Xz.h.g.b.I.g.k.H.oX#X#XyXaXrXaXyXrXaXaXaXaXaXaXaXaXpXwXaXaX",
"aXaXaXyXyXaXaXuXaXuXaXyXyXyXaXaXiXaX6X#X}.J.v.v.A.A.v.H.H.oX@X8XeXiXtXpXaXpXpXaXaXrXrXaXaXaXpXaXaXaX",
"0XqXpXpXaXaXaXaXaXaXyXaXyXyXaXaXiX8X6X.X#X{.H.x.A.x.v.I.I.=X2X+XyXtXaXaXqXpXaXaXaXyX7XyXrXaXqX0XqXqX",
"l 8.V 0XpXaXaXyXyXaXaXaXaXaXrXaXiXuX3XOX.XS.A.x.A.x.J.L.L.%X=X#XyXyXtXtXpXaXaXaXaXrXrXyXaXuX0XV F _ ",
"4.X.7.,XqXaX8XrXyXaXaXaXaXaXiXeXuXuX3XXX+XZ.A.j.x.S.v.J.K.&X+X6X6X6XyXaXaXaXaXaXuXaXrX7XaXqX,Xc  .%.",
"1.4. .G b ;XsXXXaXaXaXuXaXaXpXaXuXrX4X=XoXy.t.s.x.B.y.t.u.+X+X=XpXpXaXeXaXrXaXaXaXrX#X2X-XZ _ ~ %.%.",
"6.Q [ x S /.T.$XuXaXpXpXpXqXqXtXrXrX3X4X|.q = f b.x.r > w oX=X=XwXaXaXaXaXaXpXpXuXaX=XY./.v %.4.&.%.",
",.&.[ | J Q.)._.0X0X>X0X>XqXaXyX7X7X5X1X Xf q t.A.S.y e y oX+X4XiXiXiXiXpX0X>X>X0X>X'.!.W...[ ! *.*.",
"&.*.} { ( 9.7.7.7.J C S Y ,XaXyX7XyX4XXX&XK.k.k.x.S.p.h.h.oXoX9XrXrXiXaX0XY A H C H U P ..j %.*.o.$.",
"/ -.%.{ (  .@./ %.{ | c D 0XaXaXyX7X3XoX*XL.L.L.x.A.x.S.S.OXOX5XrX7XaXpX>Xp | { -./ ~ ~ } }  .%.%.%.",
"%.o.%.%.%.%.$.=.&.! -.~ c ,X>XpXqXeX3X4X*XL.L.K.S.x.A.x.N.OX*X5X9XaXqX0X:Xx :.! &.&.*.$.[ { { { o.%.",
"2.3.O.*.$.[ [ [ $.%.` ` _ 7.J Z >XqXsX*X*XV.S.N.j.Z.A.b.[..X#X4XqX>Xs G _ ` *.$.Q &.&.$.O.o.o.%.$.%.",
",.2.*.%.%.{ [ [ { { @.@.#.o.%.| :X>X;X=X.XC.m.m.x.[.l.c.I.+XoXwX0X:X8.../ ^ -.%.! ! &.&.O.O.*.o.%.%.",
",.,.&.%.@.` { } %.%.O.#.O.&.Q [ P D -X$X*Xr.t i.S.v.u.u.M $XsX$Xh 9.i [ :.%.%.^ [ [ &.&.O.O.*.*.%.%.",
"Q ! $.%.@.@.{ $.%.&.O.&.O.2.Q $.k K _.-XoXw 1 y j.x.f 8 g T.;X-XL ;.$.Q &.W -.%.[ $.&.3.O.#.O.%.%.*.",
"! $.%.` @.@.O.O.&.Q Q &.&.&.&.o.-.' L ].(.q q y V.v.u.8 N _.-XA c / *.2.2.2.*.X.%.%.&.&.*.O.o./ o.%.",
"[ { { -.o.@.O.*.&.&.Q &.&.*.o.@.o.-.k G D U.A.b.V.V.J.k.D.D H z  .o.&.Q ,.&.*.>.%.%.&.&.&.$.o. .%.%.",
"` @.%.[ $.$.$.%.%.%.$.$.%.%.o.O.O.W q.p C /.G.z.V.h.L.|.E.h 7. ./ *.O.3.2.3.^ ~ ` @.*.&.Q Q %.{ %.%.",
"#.@.$.$.! $.$.%.%.%.%.$.%.o.o.O.3.4.X.>.v P.R.[.M.M.M.H.~.H | $.o.=.+.2.3.4.o. .@.@.*.&.Q $.%.o.%.%.",
"@.%.%.*.$.$.%.%.%.%.%.%.$.%.%.%.%.%.*. .C ^.c.x.x.M.N.b.P.G  .$.%.%.O.*.&.%.o.%.o.%.%.&.$.&.%.%.%.%.",
"*.%.%.%.$.%.%.%.%.%.*.%.%.%.%.%.X.%.*. .U Y.c.B.x.B.m.v.P.8.` &.%.%.$.%.*.$.%.%.%.%.%.%.%.%.%.%.%.%.",
"$.*.%.%.%.*.%.%.%.%.%.%.%.%.*.%.*.*.*.` v Y w w.[.x.r.w V c / 4.O.%.%.%.*.o.%.%.%.%.%.*.$.%.%.%.*.%.",
"%.%.%.%.%.%.%.%.%.$.%.%.$.%.%.%.$.X.W >.F a 8 w.v.v.y 0 a x >.X.$.%.%.*.$.%.%.*.%.%.%.%.*.%.%.%.%.$.",
"%.%.%.%.$.*.%.%.%.%.%.*.*.%.%.%.*.=.&.-.F s q e.L.c.r.q b c >.+.&.%.%.%.%.%.%.%.*.$.%.%.%.%.%.*.%.%.",
"%.%.%.%.%.%.&.%.$.%.%.%.%.%.*.%.X.=.X./ 0.D.G.I.c.v.x.I.E.9.@.&.&.%.%.%.$.*.%.%.%.%.%.%.%.%.%.$.%.*.",
"*.%.%.*.%.%.%.o.*.o.%.%.*.%.$.%.%.*.&.( F ^.H.v.J.v.N.A.P.z / =.$.%.%.%.%.%.%.$.%.%.%.*.%.%.%.%.%.%.",
"%.$.%.%.%.%.$.*.*.$.$.%.%.%.%.%.%.o.4.-.F ^.G.L.J.J.j.I.P.9./ &.%.%.%.*.%.%.*.%.%.%.%.$.%.*.%.%.%.%.",
"$.%.%.%.%.%.%.*.%.%.%.%.%.%.$.%.^ *.:.~ G ~.H.v.[.B.j.[.P.J  .%.*.%.%.$.%.%.%.%.%.%.%.*.%.%.%.$.%.$.",
"*.%.%.%.%.%.$.%.%.%.%.%.*.%.%.%./ { ^ ;.U F.n.g.g.g.j.l.F.L ` o.%.%.%.*.%.%.%.*.$.*.%.%.%.%.o.*.*.o.",
"%.%.*.%.*.%.%.%.%.&.%.%.%.%.%.o.-.%.X. .p $ + # @ @ # @ $ c ~ %.%.%.%.%.$.*.$.%.%.%.*.$.%.%.$.*.*.$.",
"%.%.$.%.%.%.%.%.%.%.%.%.%.%.%.%.^ %.%. .I O X .         X P ;.$.%.$.%.%.%.%.%.%.%.%.%.%.%.%.%.%.%.%.",
"%.$.o.*.&.%.%.%.%.%.%.%.%.*.%.%.*.:.X./ J & % @ .   o % & x -.X.%.%.%.*.%.%.%.%.%.%.%.*.%.%.%.%.%.%.",
"%.*.%.$.%.%.%.%.*.%.$.*.$.%.%.%.$.&.W >.7.P.Y.q . X w H.E.x / 4.O.$.%.%.$.*.%.*.%.%.%.$.*.$.%.%.%.*.",
"%.%.%.%.%.%.*.$.%.%.%.%.%.%.%.$.&.X.2.:.z E.Y.t.X X w.G.!.7.X.&.&.%.%.%.$.o.%.%.%.$.%.%.*.%.*.%.%.$.",
"%.%.*.%.%.%.%.%.%.%.%.%.%.%.%.&.=.W 4.O.] K D R N 8 u.D F  .o.&.%.*.%.$.%.*.%.%.%.*.%.%.%.%.%.$.%.%.",
"$.%.%.%.%.%.%.%.$.%.%.%.*.%.*.%.$.*.&.o.o.` ' Z U.U.A _ ` %.%.%.%.%.%.&.%.%.%.%.*.%.$.%.*.%.%.*.%.%.",
"%.*.%.%.$.*.%.%.*.%.%.%.$.%.%.%.$.o.%.&.*.*.o.J U.U.J *.o.*.o.%.%.%.%.%.%.%.%.%.%.%.%.%.%.%.$.%.%.%."
};
