/* XPM */
static char *_c3f75eaceb44ff4ede6085fa99d44a5nDJr61RMMgfvpTzQ[] = {
/* columns rows colors chars-per-pixel */
"50 50 91 1 ",
"  c None",
". c black",
"X c #010101",
"o c #222222",
"O c #252525",
"+ c gray22",
"@ c #393939",
"# c gray36",
"$ c gray37",
"% c #625E5E",
"& c #635F5F",
"* c #656060",
"= c #696565",
"- c #6D6969",
"; c #726E6E",
": c #747474",
"> c #777474",
", c #787474",
"< c #787575",
"1 c #7A7676",
"2 c gray48",
"3 c #7C7979",
"4 c #7D7979",
"5 c #7D7A7A",
"6 c #7C7C7C",
"7 c #807D7D",
"8 c #827F7F",
"9 c #828080",
"0 c #838080",
"q c #878484",
"w c #898787",
"e c #8A8888",
"r c #8C8A8A",
"t c #908E8E",
"y c #928F8F",
"u c #929090",
"i c #939393",
"p c #979595",
"a c #989696",
"s c #999898",
"d c #9C9B9B",
"f c gray61",
"g c #9F9F9F",
"h c #A0A0A0",
"j c #A1A0A0",
"k c #A9A8A8",
"l c #AFAEAE",
"z c #AFAFAF",
"x c #B0AFAF",
"c c #B1B1B1",
"v c #B4B3B3",
"b c #B5B4B4",
"n c #B6B6B6",
"m c #B7B7B7",
"M c #B8B7B7",
"N c gray72",
"B c #B9B9B9",
"V c gray73",
"C c #BBBBBB",
"Z c #BCBCBC",
"A c gray74",
"S c gray",
"D c gray75",
"F c #C1C1C1",
"G c gray76",
"H c #C8C8C8",
"J c gray79",
"K c #CACACA",
"L c #D2D1D1",
"P c LightGray",
"I c #D4D3D3",
"U c gray83",
"Y c #D5D4D4",
"T c gray84",
"R c #D7D7D7",
"E c #DADADA",
"W c #DBDADA",
"Q c gainsboro",
"! c #DFDFDF",
"~ c gray88",
"^ c gray89",
"/ c #E4E4E4",
"( c gray90",
") c #E6E6E6",
"_ c gray91",
"` c #EAEAEA",
"' c #ECECEC",
"] c #F8F8F8",
"[ c #FBFBFB",
"{ c #FDFDFD",
"} c white",
/* pixels */
"                ##################                ",
"                ##################                ",
"                ##################                ",
"                  ##############                  ",
"                  #####*$#$#####                  ",
"                     fhhhhhhf                     ",
"                     AAAADAAD                     ",
"                     AAAAAAAA                     ",
"     JJJKK           ZZAACACA           KJJJJ     ",
"     JJJJJJ          AAACAAAA          JJJJJJ     ",
"     _^^^^'         PauhAChuaP         '//^^_     ",
"}}}}}}}}}}}}}}}[][_!I,&9CC9&>P^_]]}}}}}}}}}}}}}}}}",
"}}}}}}}}}}}}}}}}]]_!P4=qCCq=4I!_]][}}}}}}}}}}}}}}}",
"}}}}}}}}}}}}}}}[]]_!ExkxZZxkcE^_]]}}}}}}}}}}}}}}}}",
"}}}}}}}}}}}}}}}}]['!!GAAZZAAGQ!_]]}}}}}}}}}}}}}}}}",
"}}}}}}}}}}}}}}}}][_!EGZZZZZCGQ^_]]}}}}}}}}}}}}}}}}",
"   }}}}}}}}}}}}}]]_!EGCZZZZZG!!_]][}}}}}}}}}}}}   ",
"   }}}}}}}}}}}}[]]_!!GZZZZAAGE!_]]}}}}}}}}}}}}}   ",
"     /~/[}}}}}}}]]_^RaedZZdeaR!_]][}}}}}}}/!/     ",
"     JJP[}}}}}}[][_!I,&7CC7&,I!']]}}}}}}}[PHJ     ",
"     JJY[}}}}}}}]]_^I7-wCCw-7I!_]][}}}}}}[YJJ     ",
"             }}}]]_!EnlvZZvlnQ!']]}}}             ",
"             }}}]]_!QGAAZZAAGE!_]]}}}             ",
"             }}}]]_^QGZZZZZCG!!']]}}}             ",
"                ][_!!DAAZZACG!!_]]                ",
"                ][_!EGCAZZAAGE!_][                ",
"                  ^!Yy7aZZp7yY!/                  ",
"                  !^I>&9CC7&>P^!                  ",
"                   ^P7;eACe;7I^                   ",
"                     nnnCCCvn                     ",
"                     AACACCAA                     ",
"                     CAACAACA                     ",
"                     ACCACACC                     ",
"                     CCCCACCC                     ",
"                     44uCAr44                     ",
"                     *&9CA9**                     ",
"                     ,,rACr,3                     ",
"                     nCCCACnC                     ",
"                     ACAACACC                     ",
"                     AAACACAC                     ",
"                     AAAAAAAA                     ",
"                     lzzzzzzl                     ",
"                     oooooooo                     ",
"                     ........                     ",
"                     @@O..O++                     ",
"                     NA6..6AC                     ",
"                     AD6..6DA                     ",
"                       i>>i                       ",
"                        AA                        ",
"                        AA                        "
};
