/* XPM */
static char *a342d34f9ff843c5e62e5772deb54fa12WKevGZjcoILUfCv[] = {
/* columns rows colors chars-per-pixel */
"50 50 228 2 ",
"   c #010204",
".  c #080004",
"X  c #130703",
"o  c #000E1E",
"O  c #292316",
"+  c #322215",
"@  c #001424",
"#  c #182727",
"$  c #002738",
"%  c #3C3A3B",
"&  c #40221A",
"*  c #443230",
"=  c #0C3549",
"-  c #3D5D72",
";  c #3A6279",
":  c #274859",
">  c #5B5C53",
",  c #5C5C5C",
"<  c #555A55",
"1  c #545C57",
"2  c #625857",
"3  c #5C615A",
"4  c #636259",
"5  c #4A5C67",
"6  c #585C64",
"7  c #465C79",
"8  c #59636A",
"9  c #566168",
"0  c #446375",
"q  c #536472",
"w  c #656865",
"e  c #6C7679",
"r  c #787777",
"t  c #716D72",
"y  c #867B78",
"u  c #978C7F",
"i  c #878276",
"p  c #346B90",
"a  c #387EB1",
"s  c #467C9B",
"d  c #567289",
"f  c #6D7C89",
"g  c #7A7E85",
"h  c #667A96",
"j  c #537EA6",
"k  c #4A7EA6",
"l  c #8E7F84",
"z  c #3D85AE",
"x  c #3B87A8",
"c  c #2A85BB",
"v  c #3A85B2",
"b  c #3C8BBD",
"n  c #3788B7",
"m  c #3A91BC",
"M  c #2787AD",
"N  c #59889C",
"B  c #5F808F",
"V  c #77858C",
"C  c #68869A",
"Z  c #4484AD",
"A  c #4B84AC",
"S  c #4A89AA",
"D  c #4488AA",
"F  c #5988A6",
"G  c #5992AC",
"H  c #4285B4",
"J  c #438AB4",
"K  c #4A86BA",
"L  c #428CBA",
"P  c #4A88B8",
"I  c #4790BC",
"U  c #5492BA",
"Y  c #5B8CB5",
"T  c #6490A9",
"R  c #1C89C9",
"E  c #1B94CB",
"W  c #1D8CDC",
"Q  c #1A8ED5",
"!  c #1D95DD",
"~  c #1C95D6",
"^  c #2D8CC4",
"/  c #238BCD",
"(  c #2B8CCC",
")  c #2788C7",
"_  c #338DC3",
"`  c #3A8CC3",
"'  c #328ECC",
"]  c #3787CB",
"[  c #2592CD",
"{  c #2C92CD",
"}  c #2C92C5",
"|  c #3391C5",
" . c #3C92C2",
".. c #3294CB",
"X. c #3894CB",
"o. c #248DD3",
"O. c #2B8ED4",
"+. c #238CDB",
"@. c #2C8FDA",
"#. c #2686D0",
"$. c #318ED3",
"%. c #3A8ED4",
"&. c #2693D4",
"*. c #2992D6",
"=. c #2593DA",
"-. c #2B92DA",
";. c #2D9ADC",
":. c #279AD6",
">. c #3393D4",
",. c #3295DB",
"<. c #3399DD",
"1. c #389AD6",
"2. c #2BA1DE",
"3. c #1A96E4",
"4. c #268DE0",
"5. c #2393E3",
"6. c #2C95E3",
"7. c #2998E6",
"8. c #3197E7",
"9. c #448FC2",
"0. c #478AC3",
"q. c #4393C2",
"w. c #4596C9",
"e. c #5495CA",
"r. c #6A95C0",
"t. c #878685",
"y. c #89918C",
"u. c #838893",
"i. c #928D95",
"p. c #9A9897",
"a. c #938E8A",
"s. c #A49A98",
"d. c #A6A49D",
"f. c #979CA6",
"g. c #899FB7",
"h. c #A294A3",
"j. c #9DA9AC",
"k. c #95A6B8",
"l. c #A9ADA8",
"z. c #B5B2AE",
"x. c #B9B6A9",
"c. c #A9B6B9",
"v. c #B5BBB5",
"b. c #BBBCB5",
"n. c #B4BCBC",
"m. c #BDBCBB",
"M. c #BAB5B7",
"N. c #ACB1B4",
"B. c #C4B2AD",
"V. c #C3BCB5",
"C. c #C2BCBB",
"Z. c #C8B5BA",
"A. c #BCC1BC",
"S. c #B5C2B9",
"D. c #C2C1BD",
"F. c #C6C6B8",
"G. c #99BBD8",
"H. c #B9BCC3",
"J. c #B8B9C9",
"K. c #A7BCDB",
"L. c #B2BACB",
"P. c #9BBEE8",
"I. c #C3BDC3",
"U. c #C7B9C5",
"Y. c #98C6DB",
"T. c #BCC3C5",
"R. c #B7C4CB",
"E. c #AAC5DA",
"W. c #B7C5D6",
"Q. c #B4CBD4",
"!. c #97C5E5",
"~. c #8DCEF3",
"^. c #8DD1FB",
"/. c #9CD2F5",
"(. c #A6C6E6",
"). c #B3CBE2",
"_. c #AAD4EA",
"`. c #B7D4E6",
"'. c #A9D7F6",
"]. c #ACD1F5",
"[. c #BBE5FB",
"{. c #B8F6FF",
"}. c #C7C5C7",
"|. c #D9D4CA",
" X c #CBCAD4",
".X c #C9D3D8",
"XX c #D2DCDD",
"oX c #DBDAD8",
"OX c #D1C6D2",
"+X c #E6DDCF",
"@X c #E3DDD3",
"#X c #E3DCDC",
"$X c #ECDFD6",
"%X c #DBE5DB",
"&X c #E9E5DB",
"*X c #F1E9DE",
"=X c #D8D9E3",
"-X c #C5DCF9",
";X c #C8D6E8",
":X c #E0D9E9",
">X c #DAE3E6",
",X c #C9E7FC",
"<X c #D6E6F5",
"1X c #CEFDFF",
"2X c #C9F8FF",
"3X c #D4F7FF",
"4X c #D4FEFF",
"5X c #DBFFFF",
"6X c #E4E5E2",
"7X c #EBE9E2",
"8X c #E9E8E8",
"9X c #F9EDE4",
"0X c #FCF6EC",
"qX c #E4EBF9",
"wX c #E3FFFF",
"eX c #ECFEFF",
"rX c #EEF6FA",
"tX c #FCF5F4",
"yX c #F5FBF5",
"uX c #FDFBF5",
"iX c #FDF5FC",
"pX c #F6FEFF",
"aX c #F4FDFE",
"sX c #F9FFFE",
"dX c #FEFEFF",
"fX c #FDFEFD",
"gX c #F2F4F5",
"hX c #FBEFF1",
/* pixels */
"*.*.*.*.*.*.*.*.*.*.*.*.*.*.*.=.=.~ { { =.! *.3.3.5.>.' ,.5.7.W } m 5XeXyXyXwXz E ! 4.8.5.W +.*.*.*.",
"*.*.*.*.*.*.=.*.=.*.*.*.=.*.*.*.=.=.{ { *.*.*.=.3.5.*.^ >.+.6.=.| D wXaXdXsXwXP ;.=.+.4.5.3.;.( o.*.",
"*.*.*.*.*.*.*.*.*.*.*.*.*.*.*.=.=.*.*.' O.*.*.=.7.5.-.( { / *.| D F wXsXfXaXwXU ..6.+.+.=.=.{ | { *.",
"*.*.*.*.*.*.*.*.*.*.*.*.*.*.*.=.@.@.@.$.@.*.@.*.W W ,.{ ..| m J 5XwXaXsXdXaXeXs n 1.-.8.;./ } } *.*.",
"*.*.*.*.*.*.*.*.*.*.*.=.=.*.*.*.@.4.-.-.$.@.O.*.;.*.;./ c I D N eXsXsXdXdXdXaXC k 0.R &.E } { ..*.*.",
"*.*.*.=.=.*.*.*.*.*.*.*.*.*.*.=.=.=.=.=.O.>.@.&.o.o.=.*.w.~._.,XsXiXdXiXiXsXdX>X`./.w.:.&.&.[ [ *.*.",
"=.*.*.*.*.*.*.*.*.*.*.*.*.*.*.*.*.=.3.! *.{ &.&.>.,.W O.b ].`.>XdXiXdXfXsXdXuX7X X(.n [ [ &.:.=.*.*.",
"*.*.*.*.*.*.=.*.*.=.*.*.*.*.*.*.=.=.3.! { { &.=.( ,.W ,.K [..X6XiXdXfXfXsXfXuX$XOX).m :.[ =.5.=.*.*.",
"*.*.=.*.=.*.*.*.*.*.*.=.*.*.*.*.&.=.3.! &.{ =.=.*.*.W @.K wXsXiXiXdXfXsXaXdXuX&X}.-Xn [ ;.o.5.7.*.*.",
"*.*.*.*.*.*.*.*.*.*.*.*.*.*.*.&.&.&.=.*.{ &.=.=.o.;.6.,.P 5XaXdXdXdXyXaXaXeXsX8X.X(.m *.O.@.4.+.=.*.",
"*.*.*.*.*.*.*.*.*.*.*.*.*.*.*.O.$.O.-.@.O.o.=.=.*.o./ ^ Z 5XaXyXuXuXyXfXaXaXeX,X!.r.' &.O.,.@.O.*.*.",
"*.-.*.*.*.*.*.*.=.*.*.*.*.*.*.*.$.$.$.$.$.*.=.*./ >.>.I s wXaXsXuXfXuXfXeXeX3XG e.a $.*.#.@.$.$.@.*.",
"=.*.*.*.*.*.*.*.*.*.*.*.*.*.*.@.$.$.$.$.@.*.*.*.;.c q.S N 5XaXyXyXtXuXuXsXeX5XZ ^ ( ,.+.@./ >.' O.*.",
"*.*.*.*.*.*.*.*.*.*.*.*.=.*.&.*.-.$.$.$.*.&.*.&.&.X.4X5XeXaXsXdXiXdXiXfXfXaX4XI / ;.-.#.8.o.>.( *.*.",
"*.*.*.*.*.*.*.*.*.*.*.*.*.*.*.&.=.*.*.*.=.! &.*.*.n 5XeXsXdXtXtXsXsXdXiXuXyX5XL :.=.$.#.=.=.*.#.*.*.",
"*.*.=.*.@.*.*.*.*.*.=.*.*.*.=.=.=.&.*.{ =.=.{ _ ` P eXsXrXdXiXdXpXdXdXtXfXsXwXx { R ,.%.+.O.o.] ` b ",
"=.6.O.$.$.( ,.&.;.:./ ,.o.:.E :.&.,.o./ ;.} _ L 4XwXeXaXrXyXiXiXgXsXtXhXdXpXwXS _ { &.*.,.] 0.p 0 0 ",
"W +.@.,.@.>.&.&./ o.o.8.*.o.Q :.&.) O.<.*._ b F wXrXfXiXgXgXiXhXfXuXuXtXiXrXwXA _ { ~ [ X.a j d 6 , ",
":.Q *.6.+.8.+.7.=.;.@.-.@.,.=.6.&.&.&.R / q.[.-XqXhX7X*X&X7X7X7X%X%X7X9X8XqX3XZ c ~ E E b p d 6 6 , ",
"E [ *.<.#.,.o./ -.<.] ] ] %.' o.{ ( ;.} m {.,X<X=X#X@X|.+X&X&X%X%X%XoX@X#X:X[.I } :.E } v ; 5 6 , , ",
"..X.c I H v v q.a ` 0.K 0.P J U I J n x S [.W.=XoX&X+X&X@X|. XXX=XXX|.#X@X.X;X].D I 0.K Y 5 6 4 , , ",
">.^ I !.G.: @ $ Y.!./.P.G.h 0 B G.).Y.Y.Y.d y.y.F.x.F.F.z.g e f. XU.I.}.z.r e g.(.(.P.P.g.5 < > 2 , ",
"3.#.e.(.U.* X O l.c.L.R.c.r 3 i I.H.c.Q.S.e 1 r b.x.v.A.N.t 6 V J.M.C.D.d.w , i.J.J.U.J.f.w 2 > , , ",
"$.w.r.f y & X + x.b.H.n.S.u i u B.V.m.A.l.i i d.V.F.b.b.N.u.g f.U.H.I.D.d.a.t.s.U.U.U.U.h.w 4 < , , ",
"G.(.f         # c.E.L.R.L.n.S.v.V.x.b.m.m.m.Z.B.B.Z.V.m.v.v.b.V.C.D.M.A.M.v.m.m.M.C.Z.F.d.4 > > , , ",
"W.L.V         # j.H.L.J.H.n.m.b.D.b.}.z.m.M.I.U.Z.Z.Z.C.S.v.b.V.z.b.m.S.A.n.v.v.V.C.V.V.s.> > 3 , , ",
"S N C V l O . O x.F.M.Z.B.a.y u b.M.m.I.H.i.t.i.Z.Z.M.n.N.y.i s.C.}.T.M.l.y.t.d.C.V.A.C.s.1 1 9 , , ",
"M x G ).R.% X O l.M.H.OXm.t 2 y }.R.c.R.c.q 8 g U.U.H.}.j.w 2 l M.M.I.m.l.8 3 y.H.H.H.R.j.3 5 6 3 , ",
"2.} n ~.!.= o $ G.Y.P.(.P.h d h K.(.E.E.Q.V B y.T.T.T.T.c.V r h.OX}. XC.l.r e p.W.K.K.K.k.5 5 1 6 , ",
"Q =.*.] q.I z L v U K k 0.K v L K K A s F `.Q.oXXX>X%XXX>X.XOXoX:XXXoXoX%X.X<X`.F A F r.F 7 8 8 , , ",
"! =.@.#.O.,./ ;.( 1.] ) ] ,.=.=.6.;.^ m Z ,X<X6X#X&X%XoX&X6X6X#X>X>X7X&X&X%X[.S | { o._ Z - 6 2 , , ",
"o.;.#.6.8.+.5.~ Q *./ <.*.+.3.3.3.3.:.{ n F ,X<XqX6X7X9X&X&X8X8X8X%X7X7X&X>X4XJ :.3.! =.b p q > , , ",
"*.*.@.*.=.=.=.=.*.*.*.*.*.=.=.=.! ! *...] ` b S 4XwXuX9X0X9XfXrXyXgXrXfX0XyX5XP ..=.=.;.o.' A 0 9 , ",
"*.*.*.*.*.*.*.*.*.*.*.*.*.*.*.*.=.=.*.' $.$.{ m 1X1XsX0X9XuXuXyXuXsXaXaX9X0X5XH $.=.( *.=.&.v p ; 7 ",
"*.*.*.*.*.*.*.*.*.*.*.*.*.*.*.*.&.=.@.@.@.O.{ _ v G eXsXdXtXyXaXfXsXsXdXuXdX5XL O.6.*.,.=.*.q.J L 9.",
"*.*.*.*.*.*.=.*.*.*.=.*.*.*.*.=.&.&.*.@.@.*.*...m Z 3XeXaXsXaXsXdXdXfXdXfXaX5XH O.-.*.o.*.*._ | O.O.",
"*.*.*.=.*.*.*.*.*.*.*.*.*.*.*.=.*.*.*.@.=.*.=.=.[ w.4X5XwXeXaXrXfXdXfXfXyXeX5X9.$.-.*./ -.<.( ) *.=.",
"*.*.*.*.*.*.*.*.*.*.=.*.*.*.*.&.{ *.*.=.5.=.=.=.*.( c U j eXsXdXyXfXfXiXsXeX5XZ n ^ ,.-.*.;.o.:.=.*.",
"=.*.*.*.*.*.*.*.*.*.*.*.*.*.*.*.*.*.=.=.=.+.*.*.[ *.$.` k wXsXuXfXuXfXyXaXeX3XT U v ' @./ / o.;.&.*.",
"*.*.*.*.*.*.=.*.*.*.*.*.*.*.*.&.O.*.=.=.5.=.*.*.*.Q >.` S wXdXuXfXtXuXdXaXeXaX<X(.U ^ *.-.<.=.=.*.*.",
"*.*.*.*.*.=.*.*.*.=.*.*.*.*.*.*.*...@.=.=.*.*.*.o.*.,.` A wXyXuXuXuXuXdXaXeXfX&X.X_.b o.*.*.5.=.*.*.",
"*.*.*.*.*.*.*.*.*.*.*.=.*.*.*.*.O.O.&.=.=.=.*.*.;.*.*._ Z wXyXuXuXfXfXdXsXyXuX+X}._.L ,.;.o.=.=.*.*.",
"*.=.*.=.*.*.*.*.*.*.*.*.*.*.*.*.O.>.&.&.&.&.*.*.O.o.*.X.D [..XXXsXdXyXyXsXdX0X&X}._.I *.*.&.-.&.*.*.",
"*.*.*.*.*.*.*.*.*.*.*.*.*.*.*.@.O.*.*.&.&.&.o.$.,.@.{ } z /.).<XaXsXdXfXdXdX9X&XQ.!.| / o.*.;.*.+.*.",
"*.*.*.*.*.*.*.*.*.*.*.*.*.*.*.*.@.-.*.*.&.*.-.=.-.+./ ..q.^.'.2XeXaXdXuXyXdXdX<X].^.1.;.;.*.*./ @.*.",
"*.*.=.*.*.*.*.*.=.*.*.*.*.*.*.+.@.@.*.&.&.&.*.+.4.;.*.{ c q.n Z 5XeXyXfXuXsXeXF H X.) o.#.( ,.:.:.=.",
"*.*.*.*.=.-.*.*.*.*.*.*.*.*.*.=.=.-.&.{ [ &.=.5.W =.*.{ { >.$.9.5XeXdXuXuXsXwXa ' 6.=.7.-.( *.( o.*.",
"*.*.*.*.*.*.*.*.*.*.=.*.*.*.*.*.*.-.*.&.&.&.+.5.5.7.&.[ [ o.@.$.H F aXuX0XsX5X9.*.5.&.&.*.) ,.o.{ *.",
"*.*.*.*.*.-.*.*.=.*.*.*.*.*.*.*.*.*.*.*.=.&.*.=.=.=.*.*.&.*.*.@.' J aXfXuXsXwXJ @.5.*.*.{ &.*.O.*.*.",
"*.=.*.*.*.*.-.*.*.*.*.*.*.=.*.*.*.*.*.*.*.*.*.*.*.*.*.*.*.*.*.*.*.b eXdXdXaXwXJ @.5.*.{ [ &.*.*.*.*."
};
