/* XPM */
static char *d3b61f2d5f734d70cb33c10c515ce4823nLfYkmQQlv4ArFL[] = {
/* columns rows colors chars-per-pixel */
"50 50 63 1 ",
"  c black",
". c #222222",
"X c #252525",
"o c gray22",
"O c #393939",
"+ c gray36",
"@ c gray37",
"# c #635F5F",
"$ c #656060",
"% c #696565",
"& c #6D6969",
"* c #726E6E",
"= c #777474",
"- c #787474",
"; c #7C7979",
": c #7D7979",
"> c #7C7C7C",
", c #807D7D",
"< c #2991D6",
"1 c #828080",
"2 c #878484",
"3 c #898787",
"4 c #8A8888",
"5 c #8C8A8A",
"6 c #928F8F",
"7 c #929090",
"8 c #939393",
"9 c #979595",
"0 c #989696",
"q c #9C9B9B",
"w c gray61",
"e c #A0A0A0",
"r c #A9A8A8",
"t c #AFAEAE",
"y c #AFAFAF",
"u c #B0AFAF",
"i c #B1B1B1",
"p c #B4B3B3",
"a c #B6B6B6",
"s c gray72",
"d c #BBBBBB",
"f c #BCBCBC",
"g c gray74",
"h c gray75",
"j c gray76",
"k c #C8C8C8",
"l c gray79",
"z c #CACACA",
"x c LightGray",
"c c #D4D3D3",
"v c #D5D4D4",
"b c #D7D7D7",
"n c #DADADA",
"m c gainsboro",
"M c #DFDFDF",
"N c gray88",
"B c gray89",
"V c #E4E4E4",
"C c gray91",
"Z c #ECECEC",
"A c #F8F8F8",
"S c #FBFBFB",
"D c white",
/* pixels */
"<<<<<<<<<<<DDDDD<<<<<<<<<<<<<<<<<<<<<<<<<<<<<<<<<<",
"<<<<<<<<<<<DDDDD<<<<<<<<<<<<<<<<<<<<<<<<<<<<<<<<<<",
"<<<<<<<<<<<DDDDD<<<<<<<<<<<<<<<<<<<<<<<<<<<<<<<<<<",
"<<<<<<<<<<<DDDDDDD<<<<<<<<<<<<<<<<<<<<<<<<<<<<<<<<",
"<<<<<<<<<<<DDDDDDD<<<<<<<<<<<<<<<<<<<<<<<<<<<<<<<<",
"<<<<<<<<llCDDDDDDDBll<<<<<<<<<<<<<<<<<<<<<<<<<<<<<",
"<<<<<<<<llBDDDDDDDMll<<<<<<<<<<<<<<<<<<<<<<<<<<<<<",
"<<<<<<<<llBDDDDDDDVxv<<<<<<<<<<<<<<<<<<<<<<<<<<<<<",
"<<<<<<<<llVDDDDDDDDSS<<<<<<<<<<<<<<<<<<<<<<<<<<<<<",
"<<<<<<<<llVDDDDDDDDDD<<<<<<<<<<<<<<<<<<<<<<<<<<<<<",
"<<<<<<<<<lZDDDDDDDDDD<<<<<<<<<<<<<<<<<<<<<<<<<<<<<",
"<<<<<<<<<<<DDDDDDDDDD<<<<<<<<<<<<<<<<<<<<<<<<<<<<<",
"<<<<<<<<<<<DDDDDDDDDD<<<<<<<<<<<<<<<<<<<<<<<<<<<<<",
"<<<<<<<<<<<DDDDDDDDDDDDD<<<<<<<<<<<<<<<<<<<<<<<<<<",
"<<<<<<<<<<<DDDDDDDDDDDDD<<<<<<<<<<<<<<<<<<<<<<<<<<",
"<<<<<<<<<<<DSDDDSDSDSDDD<<<<<<<<<<<<<<<<<<<<<<<<<<",
"+++<<<<<<<<AAAAASAAAAAAAAS<<<<<<<<<<<<<<<<<<<<<<<<",
"+++<<<<<<<<AAAAAAAAAASAAAA<<<<<<<<<<<<<<<<<<<<<<<<",
"++++@<<<<<<CCCCCCVVZVZCCVVVM<<<<<<<<<<<<<<<<<<<<<<",
"+++++<<<<<<BMBMBBMMBMMBMBMBBB<<<<<<<<<<<<<<<<<<<<<",
"+++++<<<<<vxvnMnMnbccMnBMnccx<<<<<<<<<<<<<<<<<<<<<",
"+++++whfff9=-pjjjj0-,pjjjj6->affff;$;fffft. Odf<<<",
"++++@ehfff7$%rffdf4#&tffdf,#*phdff:$=pffft. off<<<",
"++++@effffe12pffdfw,3pffff0,4ddfff514ffffp. X>>9<<",
"+++++ehffffffffffffdfffffffddddfffffffffft.    =ff",
"++++@effffffdffffffffffffffffffffdfffffffp.    -ff",
"++++$efhffe12uffffq>3pffhf014pfffd714ffffy. X>>8<<",
"++++@effff7#%rffdf4#&tffff,$*dffff:$-ffffy. Ofh<<<",
"++++@wffff0-:ujjjj0-,pjjfj6=,pffff:$-pfffp. Odf<<<",
"+++++<<<<<vccnMnnMbcxnMmBnvxv<<<<<<<<<<<<<<<<<<<<<",
"++++@<<<<<<MMMMMMMBMVNBVMMNBV<<<<<<<<<<<<<<<<<<<<<",
"+++++<<<<<<CCCZCCCCCCCVCCVBN<<<<<<<<<<<<<<<<<<<<<<",
"+++<<<<<<<<SAASSAAASAAAASS<<<<<<<<<<<<<<<<<<<<<<<<",
"+++<<<<<<<<AAAAAAAAAAAAAAA<<<<<<<<<<<<<<<<<<<<<<<<",
"<<<<<<<<<<<SDSDDDSDSDDDD<<<<<<<<<<<<<<<<<<<<<<<<<<",
"<<<<<<<<<<<DDDDDDDDDDDDD<<<<<<<<<<<<<<<<<<<<<<<<<<",
"<<<<<<<<<<<DDDDDDDDDDDDD<<<<<<<<<<<<<<<<<<<<<<<<<<",
"<<<<<<<<<<<DDDDDDDDDD<<<<<<<<<<<<<<<<<<<<<<<<<<<<<",
"<<<<<<<<<<<DDDDDDDDDD<<<<<<<<<<<<<<<<<<<<<<<<<<<<<",
"<<<<<<<<<lZDDDDDDDDDD<<<<<<<<<<<<<<<<<<<<<<<<<<<<<",
"<<<<<<<<llBDDDDDDDDDD<<<<<<<<<<<<<<<<<<<<<<<<<<<<<",
"<<<<<<<<llBDDDDDDDSSS<<<<<<<<<<<<<<<<<<<<<<<<<<<<<",
"<<<<<<<<llBDDDDDDDVxx<<<<<<<<<<<<<<<<<<<<<<<<<<<<<",
"<<<<<<<<llBDDDDDDDBll<<<<<<<<<<<<<<<<<<<<<<<<<<<<<",
"<<<<<<<<llCDDDDDDDVll<<<<<<<<<<<<<<<<<<<<<<<<<<<<<",
"<<<<<<<<<<<DDDDDDD<<<<<<<<<<<<<<<<<<<<<<<<<<<<<<<<",
"<<<<<<<<<<<DDDDDDD<<<<<<<<<<<<<<<<<<<<<<<<<<<<<<<<",
"<<<<<<<<<<<DDDDD<<<<<<<<<<<<<<<<<<<<<<<<<<<<<<<<<<",
"<<<<<<<<<<<DDDDD<<<<<<<<<<<<<<<<<<<<<<<<<<<<<<<<<<",
"<<<<<<<<<<<DDDDD<<<<<<<<<<<<<<<<<<<<<<<<<<<<<<<<<<"
};
