/* XPM */
static char *eab173d667ae41f5cf121c5c1f344148qBDkIxSjNL1bSL6x[] = {
/* columns rows colors chars-per-pixel */
"50 50 226 2 ",
"   c #010204",
".  c #0B0200",
"X  c #02030B",
"o  c #150000",
"O  c #272214",
"+  c #352410",
"@  c #001525",
"#  c #032D3E",
"$  c #1A2828",
"%  c #3F3D3E",
"&  c #291A13",
"*  c #452D28",
"=  c #173C4E",
"-  c #3E6177",
";  c #585B4F",
":  c #5C5C5C",
">  c #585D56",
",  c #635C5A",
"<  c #5C6159",
"1  c #61615C",
"2  c #606155",
"3  c #4B5B67",
"4  c #585E65",
"5  c #485E72",
"6  c #556065",
"7  c #55626B",
"8  c #456477",
"9  c #636A68",
"0  c #7D6E73",
"q  c #6C797D",
"w  c #797878",
"e  c #697072",
"r  c #867D78",
"t  c #807B68",
"y  c #7C817D",
"u  c #8D867D",
"i  c #346784",
"p  c #2F6790",
"a  c #387EB1",
"s  c #4C6782",
"d  c #5A7D97",
"f  c #597580",
"g  c #777D86",
"h  c #6C7F9B",
"j  c #4A7EA5",
"k  c #857F81",
"l  c #2B87BE",
"z  c #3A84B5",
"x  c #348CBC",
"c  c #3D8CBC",
"v  c #3686B8",
"b  c #3791BD",
"n  c #3887AC",
"m  c #49839E",
"M  c #57859B",
"N  c #78858B",
"B  c #678699",
"V  c #748096",
"C  c #4282AB",
"Z  c #4985AA",
"A  c #5887A7",
"S  c #4385B3",
"D  c #438AB4",
"F  c #4D8CB4",
"G  c #4985BB",
"H  c #438CBB",
"J  c #4A89BA",
"K  c #5588B4",
"L  c #4392B7",
"P  c #5392B8",
"I  c #5B93AE",
"U  c #658DAE",
"Y  c #1A86C8",
"T  c #1D92CC",
"R  c #1E8EDC",
"E  c #1D8CD4",
"W  c #1D95DC",
"Q  c #1A95D6",
"!  c #258BC5",
"~  c #2B8CC4",
"^  c #258DCD",
"/  c #2B8DCB",
"(  c #2586C7",
")  c #338DC3",
"_  c #3A8CC4",
"`  c #338DCB",
"'  c #3287C6",
"]  c #2492CD",
"[  c #2C92CD",
"{  c #2A94C6",
"}  c #3492C5",
"|  c #3493CA",
" . c #3D93C7",
".. c #258DD3",
"X. c #2B8ED4",
"o. c #248DDB",
"O. c #2B8FDA",
"+. c #2586D6",
"@. c #318ED3",
"#. c #358ED7",
"$. c #2693D4",
"%. c #2992D6",
"&. c #2599D4",
"*. c #2593DA",
"=. c #2B92DA",
"-. c #2B99DC",
";. c #299AD7",
":. c #3393D5",
">. c #3295DA",
",. c #329ADD",
"<. c #3899D8",
"1. c #2BA2DA",
"2. c #1C94E3",
"3. c #1D98E8",
"4. c #1E8EE2",
"5. c #268FE2",
"6. c #2494E3",
"7. c #2A94E2",
"8. c #2A9AE1",
"9. c #2998EC",
"0. c #3193E5",
"q. c #32A1E6",
"w. c #438DC1",
"e. c #4988C3",
"r. c #4195C6",
"t. c #4A94C3",
"y. c #4694CB",
"u. c #5292C9",
"i. c #848886",
"p. c #978686",
"a. c #878B92",
"s. c #969396",
"d. c #98938C",
"f. c #A49998",
"g. c #A7A59B",
"h. c #969CA6",
"j. c #8B9CB3",
"k. c #A193A2",
"l. c #98ABB2",
"z. c #A7AAA7",
"x. c #B6B4AB",
"c. c #A9B4B7",
"v. c #B6BBB5",
"b. c #BCBBB5",
"n. c #BDB6BD",
"m. c #BCBCBA",
"M. c #B6B6B5",
"N. c #AEB1AE",
"B. c #C4B5B5",
"V. c #C3BCB5",
"C. c #C3BCBB",
"Z. c #CBB8B9",
"A. c #C3AFBB",
"S. c #BBC3BB",
"D. c #B7C2B8",
"F. c #C3C1BC",
"G. c #C4C3B6",
"H. c #9ABADA",
"J. c #8CBBD3",
"K. c #A8BDC8",
"L. c #B5BCC5",
"P. c #BBBDC4",
"I. c #B9BAC8",
"U. c #A6BBD8",
"Y. c #BABBD1",
"T. c #9DBEE1",
"R. c #C2BBC2",
"E. c #C8BAC6",
"W. c #C1BDD8",
"Q. c #97C5DC",
"!. c #BAC3C8",
"~. c #A5C3D9",
"^. c #B6C7D6",
"/. c #A9C8CD",
"(. c #9DC3E7",
"). c #8BCEF5",
"_. c #9FD5F8",
"`. c #98CCF1",
"'. c #A6C7E7",
"]. c #B8D4E9",
"[. c #AAD7F5",
"{. c #AED2EF",
"}. c #B7E2FA",
"|. c #C6C5C6",
" X c #D2CACC",
".X c #D9D5CB",
"XX c #C8D6DA",
"oX c #D3DDDE",
"OX c #DAD9D7",
"+X c #CDCBD5",
"@X c #E3DCCD",
"#X c #E5DED7",
"$X c #DCE2DC",
"%X c #D8E5D7",
"&X c #E4E3DB",
"*X c #EBE5DD",
"=X c #EBE5D9",
"-X c #F3E8DD",
";X c #DADBE4",
":X c #CDD6E9",
">X c #E4DDE7",
",X c #C8E1EA",
"<X c #DBE2E3",
"1X c #C7E6FC",
"2X c #D6E8F5",
"3X c #C9FFFF",
"4X c #C7F6FF",
"5X c #D5FFFF",
"6X c #DBFEFF",
"7X c #D9F6FF",
"8X c #E4E1E2",
"9X c #E8E9E6",
"0X c #F7ECE4",
"qX c #FAF5EB",
"wX c #E4E9F7",
"eX c #E4FFFF",
"rX c #ECFEFF",
"tX c #EDF5FA",
"yX c #F3F6F5",
"uX c #FDF6F5",
"iX c #FEFBF5",
"pX c #FDF5FC",
"aX c #F4FEFE",
"sX c #FDFEFD",
"dX c #F5F8F7",
"fX c #EFF0EF",
/* pixels */
"%.%.%.%.%.%.%.%.%.%.%.%.*.%.%.%.6.E T 1.~ :.W X.~.^.m b &.Q Q %.%.%.%.%.%.%.%.%.%.%.*.%.%.%.%.%.%.%.",
"%.%.%.%.%.%.%.%.%.%.%.%.%.%.%.*.7.7.*.T } ` X.y.U.U.M n T ;.-.%.%.%.%.*.%.%.%.%.%.%.%.%.*.%.%.%.%.%.",
"%.%.%.%.%.%.*.%.%.%.%.%.%.%.%.%.O.+.*.;._ a u.U V g B I r.( O.+.=.%.%.%.%.%.%.%.%.%.%.%.%.%.%.%.*.%.",
"%.%.%.%.*.%.%.%.*.%.%.%.%.%.%.=.:.#.=.>.c `.{.V X   N ~.).| X.0.O.%.%.%.%.%.*.%.*.%.%.%.%.%.%.%.%.%.",
"%.%.%.%.%.%.%.%.*.%.%.%.%.%.%.O.#.#.o.:.H H.R.0 X X r !.J.y.+.7.=.%.%.%.%.*.%.%.%.%.%.%.%.%.%.*.%.%.",
"%.%.*.%.%.%.%.*.%.%.%.%.%.$.%.%.X...7.X.D = * *     & % = H X.7.*.%.%.*.%.%.%.%.%.%.%.%.%.%.%.%.%.%.",
"%.%.%.%.%.*.%.%.%.%.%.%.%.%.%.%.%.,.9.Y D @ . o     . . @ D =.o.*.%.%.%.%.%.%.%.%.%.%.%.*.%.%.%.%.%.",
"%.%.%.%.%.%.%.%.%.%.%.%.%.%.%.$.%.^ *.%.c # O + $ $ O O # n %.*.%.*.%.%.%.%.%.%.%.%.*.%.%.%.%.%.*.%.",
"%.*.%.%.%.*.%.%.%.%.%.*.*.%.%.%.$.$.7.^ v Q.z.x.c.c.g.x.J.D / -.%.%.%.%.%.%.%.*.%.%.*.%.%.%.%.%.%.%.",
"%.%.%.%.%.%.%.%.%.%.%.%.%.%.%.%.] ..-.#.c (.v.S./.^.V.m.~.t.:.$.*.%.%.%.%.%.%.%.%.%.%.%.%.%.%.%.%.%.",
"%.%.%.%.%.%.%.%.%.%.%.%.%.%.%.%.%.=.@.#.G `.K.m.Y.I.b.n.T.G ` X.%.%.%.%.*.%.%.%.%.%.%.%.*.%.%.%.%.%.",
"*.%.%.%.%.*.%.%.%.%.%.%.%.%.%.%.%.,.+.+.G {./.!.K.I.Z.|.'.G ` >.%.%.%.%.%.%.%.%.%.%.%.%.%.%.*.%.%.%.",
"%.%.%.%.%.%.*.%.*.%.%.%.%.%.%.%.%.>.+.#.J H.c.v.L.R.B.A.H.e.#.5.$.%.%.%.%.%.%.%.*.%.%.%.%.%.%.%.%.%.",
"%.%.%.%.*.%.%.%.%.%.%.%.%.%.%.%.%.$.O.y.F B w d.L.n.p.t h j >.E *.%.%.%.%.%.%.%.%.%.*.%.%.%.%.%.%.-.",
"%.%.%.%.%.%.%.%.%.%.%.%.%.%.%.$.Q *.7.#.C 8 ; u D.D.r , s D 0.2.*.%.%.%.%.%.%.%.%.%.%.%.%.%.%.%.%.%.",
"*.*.%.%.%.=.%.%.$.%.%.%.%.%.%.*.T $.*./ Z B y u D.D.u i.d z *.3.*.*.%.%.%.$.%.%.%.%.%.%.O.O.%.*.%.%.",
"W W =.O.%.*.*.&.$.%.@.@.@.%.*.*.%.%.-./ S ~.m.B.G.x.m.I.U.G =.3.2.*.$.&.$.%.%./ %.@.%.@.#.O.=.O.%.%.",
"$.*.O.=.5.*.*.W $.$.@.@.@.%.*.$.:./ $./ Z Q.P.Z.V.G.m.L.'.K o.2.*.$.$.$.$.$.%.%.@.%.%.X.%.%.O.=.%.%.",
"[ [ @.X.O.6.W 2.2.*.O.@.#.@.[ %.^ >.$.&.b Q./.v.M.|.C.L.~.Z [ -.%.%.X.%.%.*.*.=.%.$.%.%.$.%.%.%.%.%.",
"[ [ @.@.O.%.*.W W *.O.@.X.` %.$.X.%.T } b Q.D.D.b.F.M.I.^.m b [ @.@.@.O.=.=.6.o.*.$.$.%.$.] ] $.$.%.",
"$.$.%.%.@.%.%.%.] $.:.%.O.%.*.$.,./ | x C ~.c.D.v.M.c.!.K.M I n _ @.X.O.O.6.6.W *.*.$.$.[ $.] $.$.%.",
"*.*.O.%.X.%.X.[ $.[ %.X.O.%.W *.! } c }.}.q w i.m.P.s.7 B }.1XZ _ :.X.=.*.*.o.6.*.$.$.$.$.$.*.*.%.%.",
"%.%.%.%.%.%.$.$.*.*.%.%.%.%.$.[ } H }.1X~.N < r E.M.i.9 q ^.wX1XD [ / $.%.*.*.%.%.%.O.X.%.-.*.*.%.%.",
"2.6.%.%.%.%.$.*.*.*.%.$.$.%.%.} c j 7X2X<Xs.w d.Z.E.s.g a.oX>X2XS b } [ *.%.%.%.%.%.X.%.=.%.5.6.*.%.",
"3.4.6.W %.%.^ X...=.X.$.;.%.%._ 6XeXwX;XOXG.V.V.Z.Z.E.E.R.oX&X9X5X3XL x / ^ $.-.o.%.>.%.-.5.9.R *.%.",
"3.4.6...-.%.:.>.>.%...:.(  .v F eXtXfX&X@XG.b.G.B.Z.E.P.|.;X8X<XrX5Xm D y.<.%.^ ..O.%...O.%.6.*.*.%.",
"X.X.X.%.-.E 6.o.o.7.%.| c 3X5XrXtXtX-X@X.XG.v.b.Z.B.n.m.!.%X&X*XiXsXrX6X3Xl ' 0.>.:.;./ X.%.$.$.%.%.",
"` ` | %.:.] >.+.>.( ( c P eXeXaXaXsX-X@X@XG.S.v.B.V.m.!.^.XXOX0X0XuXsXrX6XP _ _ ~ ) ~ x | :.! ;.%.%.",
">.:.[ { l r.t.J J u.P m M eXaXpXtXdX*X@X@Xx.z.M.v.D.N.l.c.%X$X*XqX0XsXaXrXj Z F Z F C D y.~ ! $.%.%.",
"5.o.^ | L ).[.{.eX6X6XeXrXaXsXsXdXyX*X=X XN e a.D.v.i.9 N OX&X=X-XiXuXsXrXrXrX6XrX6X}._.). .[ %.%.%.",
"9.6.[ b C [.].oXaXaXaXrXaXsXsXpXpXpX9X&X Xq 4 N b.b.r , w +X&X8XsXdXaXsXdXaXsXsXdXyXXX].[.v :.O.%.%.",
"6...} L M 2X;X>XsXpXsXaXsXsXuXsXpXiX9X%X:Xh.a.h.C.V.f.p.k.;X$X9XdXtXsXaXsXdXiXiXiXiX$X2X1Xj y./ O.%.",
"!  .D 6XrXsXsXsXpXsXsXiXiXsXsXsXdXdX9X%X<X!.Y.E.M.C.B.R.E.wXOX<XsXdXdXsXsXsXpXiXiXiXsXaXeXeX5XS ` %.",
"b L M rXsXsXpXpXsXsXsXqXsXsXsXaXsXfX%X%X<X|.R.n.C.S.m.n.E.>X>X9XdXsXsXsXsXsXiXsXpXsXsXaXaXaXeXA D c ",
"6X6XeXaXsXsXsXsXsXsXiXiXpXuXsXpXsXuX=X*XOX|.C.R.m.v.m.R.R.OX&X&XaXaXsXsXsXiXiXuXiXsXuXsXiXyXsXsXaXrX",
"rXaXaXdXsXyXsXsXaXaXaXsXiXuXsXsXuXuX9X#X.XR.n.m.S.v.v.|.F.OX*X0XsXdXsXsXsXsXsXsXsXsXsXiXsXiXiXiXsXsX",
"iXiXfXsXsXsXsXsXsXaXaXaXdXiXiXiXpXyX>X8XOXx.g.N.m.v.z.z.N..X&X=XqX0XiXuXdXaXaXaXaXaXaXiXiXiXiXiXiXsX",
"sXaXaXsXsXsXsXuXsXrXrXrXrXaXaXsXsXaXwX2XXXw : u v.M.a.9 y XX<X9XuXiXsXaXrXrXeXrXaXaXsXiXsXdXsXaXaXaX",
"eX5XeXrXaXsXiXiXiXdXrX6X6X6X5X6X6X7X4X}.2Xg , p.|.M.y > 9 %X}.3X6X6X6X5X6X6X6XaXsXiXqXqXsXrXeX6XeXeX",
"D F F A d wX*X=X*X<X7XA Z H t.D Z F Z F {.j.a.f.m.m.g.a.h.].Z c F S w.w.H C U 2X&X@X=X9X2XA j r.D F ",
"] ;./ z j ].+X X|.:X~.P ) ~ ] [ b b { | S '.I.E.C.C.b.P.Y.A } $.:.( >.X./ c I '.^.F.|.].{.D | $.X.X.",
"W 2.-.<.y._.'.].].'.u.v +.q.Q T { &.Q &.c '.W.A.b.B.b.P.^.K [ 2.*.$.7.%.=./ z P [.].].`.). .8.2.6.6.",
"0.o.+.$.( | x n c  .~ :.X.#./ :.&.Q Q T z '.Y.E.Z.C.C.P.U.K ^ Q $.X.X.X.>.>.` ) v c c _ <.^ 7.*.$.%.",
"0.+.6.8.$.;.] &.! ^ $.o.0.+.X.>.] &.T { D T.W.E.F.C.C.I.U.K ) *.%.,.%...%.o.%.%.$.,.%.X.o.o.*.*.%.[ ",
"9.4.6.*.$.] ] ] ,.=.:.+.>.O.=.%.#.@.x L I j.h.f.f.g.f.h.j.U J _ O.6.*.*.%./ %.%.X.-...%.[ %.%.>.] $.",
"4.4.%...] [ -.*.Y O.X.>.+.=.o.%.#.j p - 5 3 : 1 2 2 9 6 7 5 5 i } ..$.%.%.%.=.%.%.%.$.%.%./ ( ~ ] $.",
";.>.[ [ ~ ] *.R 9.7.X.#./ >.$./ e.j s 7 4 : ; < ; ; < 6 3 7 4 3 K z r.| / =.$.W *.R %.%.>.%.%.:.%.%.",
"[ [ ~ | ~ &.*.*.6.o.>.@.:.( %.| p s 3 : , : < ; < ; 6 < 3 1 , , 8 i H ) ( -.%.*.*.*.=...;.$./ $.O.O.",
"%.%.%./ %.%.$.%.*.=.%.O.O.%.%._ 8 4 : : : : : : > : : : : : : : 6 - H / $.*.%.%.%.%.%.%.%.*.X.[ $.%.",
"%.%.%.%.%.%.%.%.%.%.%.%.%.%.$.c 8 4 : : : : : : : : : : : : : : : 5 H %.%.*.$.$.%.O.O.%.*.*.%.%.%.%."
};
